<?xml version="1.0" encoding="UTF-8"?>
<svg id="Layer_1" data-name="Layer 1" xmlns="http://www.w3.org/2000/svg" viewBox="0 0 663.19 230.52">
  <defs>
    <style>
      .cls-1 {
        fill: #225e4b;
      }
    </style>
  </defs>
  <path class="cls-1" d="M549.31,155.64c-.27-8.03,1.37-15.44,2.91-22.86.09-.44.21-.88.39-1.29,4.41-10.21,6.88-21.1,11.22-31.33,1.15-2.71,2.08-5.46,2.33-8.41.27-3.18-.53-4.39-3.66-5.15-3.6-.88-7.3-.81-10.97-.76-3.75.06-7.51.13-11.24.44-3.63.31-8.66-3.71-8.71-8.12,0-.98-.06-1.95-.08-2.93-.07-2.99.86-5.59,2.89-7.81.4-.44.51-1.13.76-1.71-.61-.2-1.2-.48-1.82-.59-1.4-.25-2.83-.31-4.2-.64-.93-.22-1.83-.69-2.64-1.21-2.52-1.62-4.93-3.42-7.5-4.95-2.99-1.78-6.24-2.92-9.79-2.82-2.94.08-4.26,1.53-3.97,4.46.1,1.02.41,2.07.83,3.01,2.22,4.98,5.41,9.21,9.2,13.19,3.69,3.87,8.1,6.9,11.69,10.82,2.94,3.21,5.97,6.38,8.52,9.88,5.14,7.05,7.31,15.12,6.55,23.79-.53,6.03-3.59,10.87-8.35,14.64-1.9,1.5-3.99,2.55-6.26,3.45-5.5,2.19-11.23,2.55-17.01,2.73-6.08.19-12.15.09-18.14-1.23-.8-.18-1.63-.33-2.39-.64-2.91-1.2-5.84-2.36-8.66-3.74-1.52-.74-2.89-1.85-4.25-2.88-2.02-1.53-3.94-3.22-5.98-4.72-3.71-2.72-6.3-6.41-8.87-10.1-1.49-2.15-2.68-4.51-3.96-6.8-1.23-2.21-1.81-4.59-1.73-7.13.06-1.73.02-3.46.13-5.18.43-6.47,7.09-10.36,12.97-7.72,3.93,1.77,6.88,4.74,9.92,7.62,3.32,3.15,6.42,6.57,9.99,9.41,4.96,3.94,10.58,4.66,16.47,1.98,1.4-.64,1.88-1.69,1.19-3.11-1.18-2.42-2.37-4.85-4.46-6.69-1.06-.93-2.01-2.02-2.86-3.16-3.15-4.21-6.61-8.13-10.42-11.78-5.54-5.31-9.83-11.5-12.65-18.68-2.03-5.17-2.14-10.59-1.66-15.98.29-3.32,2.2-6.2,3.89-9.02,2.82-4.72,7.03-7.71,11.92-10.22,7.04-3.62,14.44-4.51,22.05-4,5.5.37,10.57,2.54,15.46,5.14,5.58,2.98,9.73,7.44,13.53,12.32,3.35,4.31,3.98,9.09,2.45,14.24-.57,1.91-.22,2.37,1.76,1.99,4.43-.87,8.9-1.26,13.41-1.36,2.32-.05,4.64-.48,6.95-.46,2.61.03,5.22.37,7.83.59,2.91.25,5.82.48,8.73.8,1.71.19,3.4.54,5.11.81.52.08,1.04.19,1.56.22,6.51.41,13.02.85,19.53,1.19,4.64.24,9.29.3,13.93.49,5.39.21,9.5,2.93,12.97,6.8.48.54.82,1.26,1.06,1.96,1.85,5.25-.08,10.63-4.86,13.41-2.22,1.29-4.54,2.22-7.22,2.2-1.62-.01-3.26.46-4.85.86-5.03,1.24-10.13,2.09-15.27,2.69-2.44.29-4.45,1.27-6.35,2.95-2.64,2.34-5.53,4.37-7.62,7.28-3.92,5.49-8.02,10.88-10.23,17.38-.34.99-.76,1.98-1.33,2.85-3.22,4.94-4.15,10.51-4.79,16.22-.71,6.42-.43,12.76,1.28,18.97,1.56,5.67,4.88,10.14,10.68,11.84,6.27,1.83,12.64,2.38,18.84-.75,3.02-1.53,5.59-3.49,7.57-6.22,1.4-1.93,2.3-4.04,2.07-6.5-.39-4.19-.78-8.33-3.32-11.97-2.76-3.96-8.67-4.86-12.27-1.66-3.22,2.85-3.67,5.4-1.47,9.12.52.88,1.25,1.7,2.04,2.36,1.31,1.1,1.74,2.46,1.37,4.02-.39,1.61-1.65,2.54-3.2,2.83-4.02.75-7.71.11-10.9-2.74-4.5-4.02-5.7-9.32-6.12-14.99-.3-4.03.41-7.79,2.86-11.08,2.44-3.29,5.53-5.9,8.87-8.23,5.29-3.7,11.37-4.41,17.55-4.76,4.96-.28,9.41.99,13.64,3.67,3.12,1.98,5.51,4.38,7.64,7.41,2.35,3.33,3.87,6.89,5.19,10.64,1.22,3.47,1.43,7.04,1.24,10.66-.37,7.07-2.31,13.74-5.31,20.1-1.32,2.79-2.97,5.42-5.3,7.5-2.57,2.29-5.16,4.59-7.95,6.59-1.92,1.38-4.13,2.46-6.35,3.31-3.08,1.17-6.26,2.08-9.45,2.91-1.72.45-3.53.54-5.31.71-2.61.25-5.24.34-7.84.66-4.16.5-8.14-.04-12.22-1.01-5.49-1.3-10.23-4.06-14.61-7.25-4.22-3.07-7.89-6.94-10.03-11.93-.26-.62-.61-1.21-.99-1.76-2.43-3.58-3.73-7.5-3.58-11.86.04-1.2,0-2.4,0-3.23Z"/>
  <path class="cls-1" d="M347.92,122.3c-.19-3.8.58-7.46,1.36-11.14,2.2-10.39,5.6-20.36,10.08-29.99,3.23-6.94,8.01-12.62,13.38-17.93,3.08-3.05,6.54-5.46,10.39-7.41,1.52-.77,2.81-2,4.32-2.79,2.04-1.07,4.14-2.08,6.32-2.84,8.95-3.09,18.13-5.24,27.58-6.12,3.21-.3,6.39-.87,9.58-1.3.82-.11,1.64-.14,2.46-.21,3.58-.3,7.16-.62,10.75-.91,1.35-.11,2.69-.18,4.04-.24,3.97-.19,7.94-.31,11.91-.59,2.54-.18,4.86,0,6.96,1.73,2.1,1.74,2.89,5.16,1.37,7.45-1.25,1.9-2.89,3.37-4.9,4.54-5.78,3.37-12.15,5.03-18.51,6.78-1.37.38-2.69.91-4.03,1.37-1.27.44-2.52.99-3.83,1.28-3.5.78-7.04,1.39-10.54,2.16-2.19.49-4.37,1.05-6.5,1.76-3.41,1.13-6.77,2.44-10.17,3.63-2.96,1.03-5.48,2.77-7.81,4.81-1.22,1.06-1.53,2.55-1.49,4.09.03,1.12.87,1.82,1.81,2.06,1.65.43,3.38.92,5.05.85,3.51-.15,7.01-.64,10.52-1,.97-.1,1.94-.27,2.91-.27,2.11,0,4.13-.31,6.19-.87,3.31-.91,6.72-1.46,10.1-2.11.73-.14,1.5-.11,2.24-.11,3.13,0,5.36,1.97,5.79,5.1.68,4.94-.51,8.02-6.27,11.27-2.95,1.67-6.44,2.38-9.69,3.54-3.65,1.3-7.54,1.93-10.95,3.96-1.13.67-2.5,1.08-3.81,1.3-3.6.61-6.84,1.98-10.04,3.73-4.78,2.62-9.05,5.81-13.09,9.46-5.58,5.04-8.65,11.31-9.42,18.64-.65,6.2-.65,12.45.8,18.58,1.54,6.54,4.75,12.29,8.71,17.63,2.86,3.85,5.53,7.88,9.25,11,2.03,1.7,1.76,6.03-2.02,6.51-5.16.66-10.37,1.06-15.41-1.51-4.53-2.31-8.72-4.98-12.23-8.63-1.39-1.44-2.41-3.24-3.62-4.86-.89-1.2-1.73-2.45-2.75-3.54-2.69-2.88-4.91-6.05-6.62-9.6-2.88-5.95-5.32-12.07-7.4-18.35-1.46-4.39-1.7-8.98-2.33-13.5-.34-2.44-.34-4.93-.49-7.4Z"/>
  <path class="cls-1" d="M186.19,180.26c-1.95,0-3.9-.07-5.85.02-2.8.13-5.36-.54-7.72-2-2.42-1.49-5.1-2.72-7.14-4.62-4.88-4.57-6.83-10.55-7.44-17.11-.79-8.5,5.61-17.42,12.97-20.33,7.8-3.08,16.96-1.66,22.94,4.99,1.98,2.2,3.13,4.77,3.05,7.77-.07,2.53-.25,5.07-.41,7.6-.06.97.33,1.42,1.32,1.3.51-.06,1.03-.24,1.47-.5,2.17-1.27,3.74-3.08,4.08-5.62.3-2.22.44-4.49.39-6.73-.03-1.15-.51-2.33-1-3.41-2.28-5.01-5.88-8.61-11.27-10.22-2.22-.66-4.39-1.5-6.64-2.03-8.15-1.93-15.99-.52-23.51,2.69-12.14,5.18-24.09,10.77-35.57,17.35-9.5,5.45-19.24,10.48-28.68,16.03-8.34,4.91-16.4,10.28-24.58,15.44-.51.32-1,.66-1.52.96-11.56,6.68-23.12,13.37-34.69,20.03-1.08.62-2.26,1.63-3.51.73-1.24-.88-.97-2.42-.93-3.75.01-.44.09-.97.35-1.28,1.62-1.95,3.11-4.06,5-5.71,3.21-2.81,6.74-5.26,10.04-7.98,1.67-1.38,3.07-3.08,4.69-4.53,3.69-3.29,7.44-6.53,11.17-9.78,3.39-2.96,6.82-5.87,10.18-8.87,4.32-3.84,8.51-7.81,12.9-11.57,2.5-2.14,5.24-4,7.91-5.94,7.29-5.28,14.47-10.73,21.94-15.75,8.47-5.7,17.45-10.57,26.91-14.48,4.02-1.66,7.97-3.54,12.09-4.86,3.98-1.28,8.15-1.97,12.24-2.9.58-.13,1.21-.09,1.78-.24,8.66-2.3,17.32-1.97,26.03-.19,6.73,1.37,12.53,4.46,17.7,8.85,2.79,2.38,5.7,4.7,8.08,7.46,2.13,2.46,3.7,5.44,5.35,8.28,2.29,3.93,3.8,8.2,4.3,12.7.44,3.92.96,7.94-.95,11.71-.1.2-.18.42-.23.63-1.07,4.53-3.47,8.25-6.87,11.38-.55.5-1,1.12-1.42,1.74-1.21,1.79-2.74,3.11-4.8,3.91-1.31.51-2.54,1.29-3.72,2.08-6.17,4.12-12.98,6.11-20.35,6.33-2.02.06-4.05,0-6.07,0v.38Z"/>
  <path class="cls-1" d="M231.67,110.66c8.54-.38,16.25,2.05,23.31,6.82,2.34,1.58,4.36,3.4,6.03,5.66,1.38,1.87,2.94,3.62,4.22,5.56,1.02,1.55,1.73,3.31,2.57,4.98.1.2.1.47.24.63.4.48.78,1.22,1.29,1.32.81.18,1.04-.66,1.2-1.33.27-1.17.53-2.34.79-3.51.34-1.54.69-3.07.99-4.61.46-2.43.85-4.86,1.3-7.29.88-4.79,1.78-9.58,2.68-14.37.37-2,1.41-3.61,2.89-4.97,2.95-2.73,6.53-3.05,9.77-.55,4.27,3.3,8.38,6.8,12.59,10.17.71.57,1.42,1.8,2.42,1.1.52-.36.56-1.61.56-2.46.02-9.42.68-18.75,3.38-27.83.62-2.07,1.49-4.07,2.27-6.09.33-.84.82-1.62,1.09-2.47.98-3.14,2.88-5.72,4.74-8.38,2.8-4.01,6.9-5.89,11.3-7.32,3.12-1.01,6.39-.84,9.61-.66,3.12.17,4.05,2.13,2.82,4.98-4.07,9.43-8.32,18.85-9.62,29.17-1.29,10.23-1.8,20.47.69,30.66.9,3.71,1.23,7.55,1.94,11.3.99,5.23,2.07,10.44,3.18,15.65.67,3.15,1.45,6.28,2.25,9.4.52,2.03,1.04,4.08,1.8,6.03.87,2.26.89,4.55.76,6.87-.13,2.32-2.66,4.68-5.01,4.55-3.45-.18-6.73-.85-9.69-2.58-3.3-1.93-6.51-4.02-9.67-6.18-1.6-1.09-3.06-2.42-4.47-3.76-5.38-5.09-9.8-10.94-13.59-17.29-1-1.67-1.93-3.39-2.83-5.11-.91-1.74-1.84-1.87-2.88-.19-.9,1.46-1.68,3.02-2.36,4.6-3.21,7.49-7.33,14.45-12.29,20.9-1.55,2.01-3.36,3.85-5.25,5.54-2.63,2.34-5.45,4.47-8.2,6.68-.82.66-1.75,1.2-2.48,1.95-3.43,3.48-7.79,5.29-12.28,6.82-2.32.79-4.74.74-7.12.23-1.79-.39-2.95-1.52-3.17-3.36-.27-2.24-.24-4.45.3-6.7,1.13-4.66,2.36-9.32,3-14.05.73-5.41.86-10.91,1.25-16.37.14-1.99-.3-3.89-1.06-5.7-.87-2.08-1.82-4.12-2.75-6.16-2.15-4.7-5.71-8.22-9.65-11.42-1.74-1.42-3.56-2.76-5.31-4.17-1.85-1.5-2.09-3.48-.71-5.32.67-.89,1.5-1.44,2.68-1.36.75.05,1.5.02,2.25.02.75,0,1.5,0,2.25,0Z"/>
  <path class="cls-1" d="M118.44,88.76c2.7,0,5.41.11,8.11-.03,2.79-.15,4.64,1.44,6.46,3.12.94.87.94,3.69.03,4.86-.68.88-1.45,1.81-2.4,2.33-2.63,1.43-5.34,2.73-8.1,3.91-1.21.52-2.6.64-3.92.91-1.03.21-2.08.32-3.1.56-5.31,1.27-10.62,2.56-15.93,3.84-3.42.83-6.84,1.66-10.26,2.52-4.24,1.06-7.34,3.76-9.71,7.23-3.01,4.39-5.8,8.93-8.61,13.46-1.03,1.65-1.98,3.38-2.72,5.17-3.04,7.33-7.68,13.73-11.74,20.47-.73,1.21-1.87,2.15-2.71,3.3-1.95,2.66-3.8,5.39-5.76,8.04-1.34,1.81-2.69,3.62-4.21,5.26-3.72,4.02-7.56,7.92-11.33,11.9-1.4,1.47-3.17,1.94-5.08,2-1.6.04-2.54-.87-2.57-2.47-.03-2.11.52-4.07,1.38-6.05,1.52-3.5,2.75-7.14,4-10.75,3.98-11.48,8-22.94,11.83-34.47,3.91-11.75,7.04-23.72,9.38-35.89.92-4.79,1.72-9.6,2.81-14.35,1.83-7.89,5.29-15.07,11.01-20.84,6.36-6.4,13.82-11.13,23.11-11.96,3.88-.34,7.8-.06,11.7-.23,5.51-.24,10.9.93,16.34,1.36,1.17.09,2.34.52,3.47.92,4.66,1.65,8.84,4.02,12.13,7.84,1.19,1.39,1.8,2.86,1.14,4.52-.63,1.59-2.06,2.28-3.78,2.36-7.07.32-13.96,1.84-20.87,3.17-2.78.54-5.53,1.4-8.17,2.45-2.58,1.03-4.99,2.45-6,5.38-.89,2.58.18,5.62,2.49,7.06,2.82,1.76,6.01,2.36,9.21,2.66,4.1.39,8.22.45,12.33.66,0-.08,0-.16.01-.24Z"/>
  <path class="cls-1" d="M437.79,183.82c-3.21-.23-6.45-.27-9.63-.74-5.23-.78-9.88-2.98-13.92-6.43-1.2-1.02-2.39-2.06-3.63-3.03-7.94-6.17-12.27-14.49-13.89-24.21-.65-3.88-.89-8-.34-11.87.52-3.71,2.21-7.28,3.56-10.85,1.37-3.63,3.99-6.28,7.13-8.49,6.4-4.49,13.53-6.98,21.23-8.12,4.34-.65,8.71-.8,13.02-.42,5.04.44,9.91,1.9,13.73,5.5,1.57,1.48,2.84,3.28,4.18,4.99.4.51.7,1.18.83,1.82,1.44,6.93-1.06,12.34-7.12,16.1-3.83,2.38-8.11,3.47-12.28,4.92-1.74.6-3.53,1.38-4.97,2.49-2.21,1.7-1.81,4.31.73,5.58,2.09,1.05,4.33,1.63,6.71,1.66,5.6.07,11.04-.92,16.46-2.18,2.62-.61,5.32-.87,7.98-1.31,2.37-.4,4.73-.81,7.09-1.25,2.95-.55,5.87-1.2,8.83-1.67,1.07-.17,2.3-.19,3.3.18,1.84.67,2.5,2.9,1.58,4.99-.75,1.71-1.6,3.41-2.59,4.99-4.32,6.87-9.44,12.99-16.48,17.27-1.15.7-2.3,1.43-3.38,2.24-5.76,4.29-12.38,6.39-19.36,7.37-2.87.41-5.84.07-8.76.07,0,.13,0,.27-.01.4ZM428.93,134.38c3.04.08,6.5-1.75,7.67-3.62,1.74-2.78.19-6.71-3.04-7.2-1.8-.28-3.77-.24-5.54.18-3.11.75-4.56,2.79-4.8,6.48-.08,1.23.49,2.27,1.59,2.74,1.56.67,3.22,1.12,4.12,1.42Z"/>
  <path class="cls-1" d="M274.93,74.8c-.44,3.19-.79,6.39-1.36,9.56-.22,1.22-.8,2.44-1.47,3.5-1.73,2.72-3.53,5.4-5.43,8-2.11,2.89-9.57,8.07-12.54,9.29-7.33,3.02-14.7,2.22-22.12.6-1.02-.22-2.02-.56-3.03-.85-7.8-2.28-12.79-7.5-15.69-14.93-1.43-3.66-2.46-7.36-2.26-11.38.21-4.13.3-8.31,1.53-12.25,3-9.63,8.64-17.08,18.4-20.75,1.52-.57,3.2-.89,4.82-.95,3.82-.14,7.65-.11,11.47-.04,1.26.02,2.55.24,3.75.63,2.64.85,5.25,1.79,7.81,2.86,1.22.51,2.42,1.26,3.39,2.16,3.04,2.81,5.81,5.85,7.79,9.54.88,1.65,1.94,3.22,2.72,4.92,1.45,3.18,2.23,6.53,2.22,10.09ZM232.53,74.24c.07,2.52.44,3.98,1.68,5.23,3.55,3.57,7.76,4.99,12.7,3.61.75-.21,1.62-.63,2.07-1.23,2.16-2.87,3.17-6.06,2.33-9.68-1.05-4.52-5.35-8.5-11.33-7.51-3.82.64-6.4,2.85-7.09,6.7-.17.95-.24,1.93-.36,2.89Z"/>
  <path class="cls-1" d="M135.72,38.53c6.35-.26,12.26,1.43,17.65,4.55,2.88,1.66,5.36,4.08,7.85,6.34,5.78,5.24,10.04,11.49,12.32,19.02.7,2.29,1.53,4.55,2.17,6.86.29,1.06.78,1.48,1.86,1.49,4.48.04,8.79,1.15,12.95,2.64,8.7,3.13,14.83,8.88,17.28,18.05.27,1,.35,2.08.33,3.11-.07,2.51-1.88,3.78-4.3,3.07-.5-.14-.94-.45-1.43-.66-3.3-1.4-6.58-2.89-9.93-4.18-6.89-2.64-14.02-3.02-21.26-1.98-4.15.59-8.3,1.22-12.43,1.94-1.84.32-3.62.93-5.44,1.37-.8.19-1.61.39-2.42.41-1.88.04-2.97-1.02-2.91-2.89.04-1.03.22-2.11.57-3.08.77-2.14,1.21-4.32,1.32-6.59.25-5.62.71-11.29-.64-16.81-1.75-7.17-4.71-13.71-10.81-18.44-3.04-2.36-6.2-4.46-9.62-6.21-.8-.41-1.56-.9-2.28-1.42-1.44-1.04-1.5-2.58-1.11-4.07.38-1.47,1.58-2.07,3.08-2.14,2.4-.11,4.79-.27,7.18-.41Z"/>
</svg>