<?xml version="1.0" encoding="UTF-8"?>
<svg id="Layer_1" data-name="Layer 1" xmlns="http://www.w3.org/2000/svg" version="1.1" viewBox="0 0 1025.8 18.7">
  <defs>
    <style>
      .cls-1 {
        fill: #AFB660;
      }

      .cls-1, .cls-2 {
        stroke-width: 0px;
      }

      .cls-2 {
        fill: #13648D;
      }
    </style>
  </defs>
  <path class="cls-1" d="M70.3,17.7l1.9-4.9c0-.2.2-.3.4-.4l4.8-2.3c.5-.3.5-1,0-1.3l-4.9-2.5c-.1,0-.3-.2-.3-.3l-2-4.5c-.3-.6-1.1-.6-1.3,0l-2,5c0,.2-.2.3-.4.4l-4.7,2.2c-.5.2-.6,1,0,1.3l5.3,2.7c.2,0,.3.2.4.4l1.5,4.3c.2.6,1.1.6,1.3,0Z"/>
  <path class="cls-2" d="M51.4,10c0-4.9-3.9-8.8-8.8-8.8s-8.8,3.9-8.8,8.8,2.1,6.6,5.2,8c-1.8-1.2-3-3.2-3-5.5,0-3.6,3-6.6,6.6-6.6s6.6,3,6.6,6.6-1.2,4.3-3,5.5c3-1.4,5.2-4.5,5.2-8Z"/>
  <circle class="cls-1" cx="132.3" cy="9.6" r="3.5"/>
  <path class="cls-2" d="M116.1,6.2c-3.6,1.8-7.6-.5-10.8-1.2-3.6-.8-7.3.7-10.4,2.7-.1,0-.2.2-.4.2-.3.2-.2.6,0,.6,4,1.1,8.5.7,12.7.3-1.5.2-3,.8-4.5,1-1.5.2-3.7.5-5.2.4-1.6,0-2.7-.3-4.2-.6-.5,0-10.1-3-8.5-2.2,4,2.3,3.6,2.4,7.9,4.1,2.6,1,5.3,2,8.1,2.4,3,.5,6,.4,8.6-1.1,3-1.7,5.2-3.7,6.7-6.7Z"/>
  <path class="cls-1" d="M9.9,5.5c1.7.3,3.4,1.1,5,1.9,2.7,1.3,6.4,2.9,8.8.4.2,1.7-1,3.3-2.5,4s-3.3.7-4.9.4c.5.4.3,1.3-.3,1.5s-1.2,0-1.7-.3-.8-.9-1.2-1.4c-.4-.5-1.7-2.4-2.5-2-.2,0-.3.3-.3.5,0,.9,1.1,2,.5,2.9s-.7.5-1.1.4c-1.5-.3-2.4-2.2-3.5-3.2-.3-.3-1.4-1.1-2.3-1.5s-.6-.7-.3-1.1h0c.9-1.2,2.2-1.9,3.6-2.3.9-.3,1.9-.3,2.8-.1Z"/>
  <path class="cls-2" d="M156.4,14.9l1.3-3.2c0-.1.1-.2.2-.2l3.2-1.5c.3-.2.4-.7,0-.8l-3.2-1.7c0,0-.2-.1-.2-.2l-1.3-3c-.2-.4-.7-.4-.9,0l-1.3,3.3c0,.1-.1.2-.2.3l-3.1,1.4c-.4.2-.4.7,0,.8l3.5,1.8c.1,0,.2.2.2.3l1,2.8c.1.4.7.4.9,0Z"/>
  <path class="cls-1" d="M242.4,17.7l1.9-4.9c0-.2.2-.3.4-.4l4.8-2.3c.5-.3.5-1,0-1.3l-4.9-2.5c-.1,0-.3-.2-.3-.3l-2-4.5c-.3-.6-1.1-.6-1.3,0l-2,5c0,.2-.2.3-.4.4l-4.7,2.2c-.5.2-.6,1,0,1.3l5.3,2.7c.2,0,.3.2.4.4l1.5,4.3c.2.6,1.1.6,1.3,0Z"/>
  <path class="cls-2" d="M223.5,10c0-4.9-3.9-8.8-8.8-8.8s-8.8,3.9-8.8,8.8,2.1,6.6,5.2,8c-1.8-1.2-3-3.2-3-5.5,0-3.6,3-6.6,6.6-6.6s6.6,3,6.6,6.6-1.2,4.3-3,5.5c3-1.4,5.2-4.5,5.2-8Z"/>
  <circle class="cls-1" cx="304.4" cy="9.6" r="3.5"/>
  <path class="cls-2" d="M288.2,6.2c-3.6,1.8-7.6-.5-10.8-1.2-3.6-.8-7.3.7-10.4,2.7-.1,0-.2.2-.4.2-.3.2-.2.6,0,.6,4,1.1,8.5.7,12.7.3-1.5.2-3,.8-4.5,1-1.5.2-3.7.5-5.2.4-1.6,0-2.7-.3-4.2-.6-.5,0-10.1-3-8.5-2.2,4,2.3,3.6,2.4,7.9,4.1,2.6,1,5.3,2,8.1,2.4,3,.5,6,.4,8.6-1.1,3-1.7,5.2-3.7,6.7-6.7Z"/>
  <path class="cls-1" d="M182,5.5c1.7.3,3.4,1.1,5,1.9,2.7,1.3,6.4,2.9,8.8.4.2,1.7-1,3.3-2.5,4s-3.3.7-4.9.4c.5.4.3,1.3-.3,1.5s-1.2,0-1.7-.3-.8-.9-1.2-1.4c-.4-.5-1.7-2.4-2.5-2-.2,0-.3.3-.3.5,0,.9,1.1,2,.5,2.9s-.7.5-1.1.4c-1.5-.3-2.4-2.2-3.5-3.2-.3-.3-1.4-1.1-2.3-1.5s-.6-.7-.3-1.1h0c.9-1.2,2.2-1.9,3.6-2.3.9-.3,1.9-.3,2.8-.1Z"/>
  <path class="cls-2" d="M328.6,14.9l1.3-3.2c0-.1.1-.2.2-.2l3.2-1.5c.3-.2.4-.7,0-.8l-3.2-1.7c0,0-.2-.1-.2-.2l-1.3-3c-.2-.4-.7-.4-.9,0l-1.3,3.3c0,.1-.1.2-.2.3l-3.1,1.4c-.4.2-.4.7,0,.8l3.5,1.8c.1,0,.2.2.2.3l1,2.8c.1.4.7.4.9,0Z"/>
  <path class="cls-1" d="M416.2,17.4l1.9-4.9c0-.2.2-.3.4-.4l4.8-2.3c.5-.3.5-1,0-1.3l-4.9-2.5c-.1,0-.3-.2-.3-.3l-2-4.5c-.3-.6-1.1-.6-1.3,0l-2,5c0,.2-.2.3-.4.4l-4.7,2.2c-.5.2-.6,1,0,1.3l5.3,2.7c.2,0,.3.2.4.4l1.5,4.3c.2.6,1.1.6,1.3,0Z"/>
  <path class="cls-2" d="M397.3,9.7c0-4.9-3.9-8.8-8.8-8.8s-8.8,3.9-8.8,8.8,2.1,6.6,5.2,8c-1.8-1.2-3-3.2-3-5.5,0-3.6,3-6.6,6.6-6.6s6.6,3,6.6,6.6-1.2,4.3-3,5.5c3-1.4,5.2-4.5,5.2-8Z"/>
  <circle class="cls-1" cx="478.2" cy="9.3" r="3.5"/>
  <path class="cls-2" d="M462,6c-3.6,1.8-7.6-.5-10.8-1.2-3.6-.8-7.3.7-10.4,2.7-.1,0-.2.2-.4.2-.3.2-.2.6,0,.6,4,1.1,8.5.7,12.7.3-1.5.2-3,.8-4.5,1-1.5.2-3.7.5-5.2.4-1.6,0-2.7-.3-4.2-.6-.5,0-10.1-3-8.5-2.2,4,2.3,3.6,2.4,7.9,4.1,2.6,1,5.3,2,8.1,2.4,3,.5,6,.4,8.6-1.1,3-1.7,5.2-3.7,6.7-6.7Z"/>
  <path class="cls-1" d="M355.9,5.2c1.7.3,3.4,1.1,5,1.9,2.7,1.3,6.4,2.9,8.8.4.2,1.7-1,3.3-2.5,4s-3.3.7-4.9.4c.5.4.3,1.3-.3,1.5s-1.2,0-1.7-.3-.8-.9-1.2-1.4c-.4-.5-1.7-2.4-2.5-2-.2,0-.3.3-.3.5,0,.9,1.1,2,.5,2.9s-.7.5-1.1.4c-1.5-.3-2.4-2.2-3.5-3.2-.3-.3-1.4-1.1-2.3-1.5s-.6-.7-.3-1.1h0c.9-1.2,2.2-1.9,3.6-2.3.9-.3,1.9-.3,2.8-.1Z"/>
  <path class="cls-2" d="M502.4,14.7l1.3-3.2c0-.1.1-.2.2-.2l3.2-1.5c.3-.2.4-.7,0-.8l-3.2-1.7c0,0-.2-.1-.2-.2l-1.3-3c-.2-.4-.7-.4-.9,0l-1.3,3.3c0,.1-.1.2-.2.3l-3.1,1.4c-.4.2-.4.7,0,.8l3.5,1.8c.1,0,.2.2.2.3l1,2.8c.1.4.7.4.9,0Z"/>
  <path class="cls-1" d="M586.1,17.4l1.9-4.9c0-.2.2-.3.4-.4l4.8-2.3c.5-.3.5-1,0-1.3l-4.9-2.5c-.1,0-.3-.2-.3-.3l-2-4.5c-.3-.6-1.1-.6-1.3,0l-2,5c0,.2-.2.3-.4.4l-4.7,2.2c-.5.2-.6,1,0,1.3l5.3,2.7c.2,0,.3.2.4.4l1.5,4.3c.2.6,1.1.6,1.3,0Z"/>
  <path class="cls-2" d="M567.2,9.7c0-4.9-3.9-8.8-8.8-8.8s-8.8,3.9-8.8,8.8,2.1,6.6,5.2,8c-1.8-1.2-3-3.2-3-5.5,0-3.6,3-6.6,6.6-6.6s6.6,3,6.6,6.6-1.2,4.3-3,5.5c3-1.4,5.2-4.5,5.2-8Z"/>
  <circle class="cls-1" cx="648.1" cy="9.3" r="3.5"/>
  <path class="cls-2" d="M631.9,6c-3.6,1.8-7.6-.5-10.8-1.2-3.6-.8-7.3.7-10.4,2.7-.1,0-.2.2-.4.2-.3.2-.2.6,0,.6,4,1.1,8.5.7,12.7.3-1.5.2-3,.8-4.5,1-1.5.2-3.7.5-5.2.4-1.6,0-2.7-.3-4.2-.6-.5,0-10.1-3-8.5-2.2,4,2.3,3.6,2.4,7.9,4.1,2.6,1,5.3,2,8.1,2.4,3,.5,6,.4,8.6-1.1,3-1.7,5.2-3.7,6.7-6.7Z"/>
  <path class="cls-1" d="M525.8,5.2c1.7.3,3.4,1.1,5,1.9,2.7,1.3,6.4,2.9,8.8.4.2,1.7-1,3.3-2.5,4s-3.3.7-4.9.4c.5.4.3,1.3-.3,1.5s-1.2,0-1.7-.3-.8-.9-1.2-1.4c-.4-.5-1.7-2.4-2.5-2-.2,0-.3.3-.3.5,0,.9,1.1,2,.5,2.9s-.7.5-1.1.4c-1.5-.3-2.4-2.2-3.5-3.2-.3-.3-1.4-1.1-2.3-1.5s-.6-.7-.3-1.1h0c.9-1.2,2.2-1.9,3.6-2.3.9-.3,1.9-.3,2.8-.1Z"/>
  <path class="cls-2" d="M672.3,14.7l1.3-3.2c0-.1.1-.2.2-.2l3.2-1.5c.3-.2.4-.7,0-.8l-3.2-1.7c0,0-.2-.1-.2-.2l-1.3-3c-.2-.4-.7-.4-.9,0l-1.3,3.3c0,.1-.1.2-.2.3l-3.1,1.4c-.4.2-.4.7,0,.8l3.5,1.8c.1,0,.2.2.2.3l1,2.8c.1.4.7.4.9,0Z"/>
  <path class="cls-1" d="M754.9,17.4l1.9-4.9c0-.2.2-.3.4-.4l4.8-2.3c.5-.3.5-1,0-1.3l-4.9-2.5c-.1,0-.3-.2-.3-.3l-2-4.5c-.3-.6-1.1-.6-1.3,0l-2,5c0,.2-.2.3-.4.4l-4.7,2.2c-.5.2-.6,1,0,1.3l5.3,2.7c.2,0,.3.2.4.4l1.5,4.3c.2.6,1.1.6,1.3,0Z"/>
  <path class="cls-2" d="M736,9.7c0-4.9-3.9-8.8-8.8-8.8s-8.8,3.9-8.8,8.8,2.1,6.6,5.2,8c-1.8-1.2-3-3.2-3-5.5,0-3.6,3-6.6,6.6-6.6s6.6,3,6.6,6.6-1.2,4.3-3,5.5c3-1.4,5.2-4.5,5.2-8Z"/>
  <circle class="cls-1" cx="816.9" cy="9.3" r="3.5"/>
  <path class="cls-2" d="M800.7,6c-3.6,1.8-7.6-.5-10.8-1.2-3.6-.8-7.3.7-10.4,2.7-.1,0-.2.2-.4.2-.3.2-.2.6,0,.6,4,1.1,8.5.7,12.7.3-1.5.2-3,.8-4.5,1-1.5.2-3.7.5-5.2.4-1.6,0-2.7-.3-4.2-.6-.5,0-10.1-3-8.5-2.2,4,2.3,3.6,2.4,7.9,4.1,2.6,1,5.3,2,8.1,2.4,3,.5,6,.4,8.6-1.1,3-1.7,5.2-3.7,6.7-6.7Z"/>
  <path class="cls-1" d="M694.6,5.2c1.7.3,3.4,1.1,5,1.9,2.7,1.3,6.4,2.9,8.8.4.2,1.7-1,3.3-2.5,4s-3.3.7-4.9.4c.5.4.3,1.3-.3,1.5s-1.2,0-1.7-.3-.8-.9-1.2-1.4c-.4-.5-1.7-2.4-2.5-2-.2,0-.3.3-.3.5,0,.9,1.1,2,.5,2.9s-.7.5-1.1.4c-1.5-.3-2.4-2.2-3.5-3.2-.3-.3-1.4-1.1-2.3-1.5s-.6-.7-.3-1.1h0c.9-1.2,2.2-1.9,3.6-2.3.9-.3,1.9-.3,2.8-.1Z"/>
  <path class="cls-2" d="M841.1,14.7l1.3-3.2c0-.1.1-.2.2-.2l3.2-1.5c.3-.2.4-.7,0-.8l-3.2-1.7c0,0-.2-.1-.2-.2l-1.3-3c-.2-.4-.7-.4-.9,0l-1.3,3.3c0,.1-.1.2-.2.3l-3.1,1.4c-.4.2-.4.7,0,.8l3.5,1.8c.1,0,.2.2.2.3l1,2.8c.1.4.7.4.9,0Z"/>
  <path class="cls-1" d="M926.3,17.4l1.9-4.9c0-.2.2-.3.4-.4l4.8-2.3c.5-.3.5-1,0-1.3l-4.9-2.5c-.1,0-.3-.2-.3-.3l-2-4.5c-.3-.6-1.1-.6-1.3,0l-2,5c0,.2-.2.3-.4.4l-4.7,2.2c-.5.2-.6,1,0,1.3l5.3,2.7c.2,0,.3.2.4.4l1.5,4.3c.2.6,1.1.6,1.3,0Z"/>
  <path class="cls-2" d="M907.4,9.7c0-4.9-3.9-8.8-8.8-8.8s-8.8,3.9-8.8,8.8,2.1,6.6,5.2,8c-1.8-1.2-3-3.2-3-5.5,0-3.6,3-6.6,6.6-6.6s6.6,3,6.6,6.6-1.2,4.3-3,5.5c3-1.4,5.2-4.5,5.2-8Z"/>
  <circle class="cls-1" cx="988.3" cy="9.3" r="3.5"/>
  <path class="cls-2" d="M972.2,6c-3.6,1.8-7.6-.5-10.8-1.2-3.6-.8-7.3.7-10.4,2.7-.1,0-.2.2-.4.2-.3.2-.2.6,0,.6,4,1.1,8.5.7,12.7.3-1.5.2-3,.8-4.5,1-1.5.2-3.7.5-5.2.4-1.6,0-2.7-.3-4.2-.6-.5,0-10.1-3-8.5-2.2,4,2.3,3.6,2.4,7.9,4.1,2.6,1,5.3,2,8.1,2.4,3,.5,6,.4,8.6-1.1,3-1.7,5.2-3.7,6.7-6.7Z"/>
  <path class="cls-1" d="M866,5.2c1.7.3,3.4,1.1,5,1.9,2.7,1.3,6.4,2.9,8.8.4.2,1.7-1,3.3-2.5,4s-3.3.7-4.9.4c.5.4.3,1.3-.3,1.5s-1.2,0-1.7-.3-.8-.9-1.2-1.4c-.4-.5-1.7-2.4-2.5-2-.2,0-.3.3-.3.5,0,.9,1.1,2,.5,2.9s-.7.5-1.1.4c-1.5-.3-2.4-2.2-3.5-3.2-.3-.3-1.4-1.1-2.3-1.5s-.6-.7-.3-1.1h0c.9-1.2,2.2-1.9,3.6-2.3.9-.3,1.9-.3,2.8-.1Z"/>
  <path class="cls-2" d="M1012.5,14.7l1.3-3.2c0-.1.1-.2.2-.2l3.2-1.5c.3-.2.4-.7,0-.8l-3.2-1.7c0,0-.2-.1-.2-.2l-1.3-3c-.2-.4-.7-.4-.9,0l-1.3,3.3c0,.1-.1.2-.2.3l-3.1,1.4c-.4.2-.4.7,0,.8l3.5,1.8c.1,0,.2.2.2.3l1,2.8c.1.4.7.4.9,0Z"/>
</svg>