<?xml version="1.0" encoding="UTF-8"?>
<svg id="Layer_1" data-name="Layer 1" xmlns="http://www.w3.org/2000/svg" viewBox="0 0 8624.06 222.79">
  <defs>
    <style>
      .cls-1 {
        fill: #afb660;
      }

      .cls-2 {
        fill: #225e4b;
      }

      .cls-3 {
        fill: #5398a6;
      }

      .cls-4 {
        fill: #14648e;
      }
    </style>
  </defs>
  <g>
    <path class="cls-2" d="M2049.25,96.21c-4.77,3.83-9.64,7.54-14.28,11.53-4.3,3.69-7.44,8.42-10.66,13.04-1.17,1.67-2.3,3.38-3.31,5.15-4.24,7.46-9.7,14.18-13.29,22.03-.94,2.05-1.81,4.13-2.82,6.14-.75,1.5-1.54,3.01-2.55,4.35-1.12,1.48-2.74,1.81-4.13,1.17-1.38-.63-2.04-2.03-1.79-3.91.25-1.88.61-3.75.82-5.64.21-1.88.29-3.78.41-5.67.09-1.47.01-2.97.25-4.42.71-4.38,1.57-8.73,2.3-13.11.34-2.08.63-4.18.72-6.28.16-3.6.73-7.11,1.57-10.62,1.02-4.23,1.55-8.59,2.57-12.83,1.4-5.82,2.92-11.62,5.9-16.9,1.17-2.08,2.46-4.09,3.71-6.13,2.72-4.44,5.43-8.89,8.16-13.32,4.82-7.82,11.58-13.57,19.58-17.85,3.96-2.12,8.02-4.19,12.24-5.69,7.28-2.58,14.82-3.93,22.61-3.11,2.24.24,4.49.38,6.73.58.56.05,1.13.09,1.67.23,4.14,1.08,8.38,1.78,12.33,3.62,3.5,1.64,7.23,2.81,10.68,4.53,3,1.5,5.93,3.26,8.6,5.29,2.61,1.99,4.93,4.39,7.25,6.74,2.12,2.14,4.15,4.39,6.08,6.7,3.15,3.76,5.25,8.16,7.25,12.59,1.79,3.97,3.45,8.01,5.15,12.02,2.21,5.22,3.45,10.71,4.43,16.26,1.18,6.65,2.26,13.31,3.34,19.98.21,1.31.27,2.66.34,3.99.17,2.95.28,5.9.46,8.84.31,4.85.41,9.66-.21,14.53-.67,5.23-.68,10.54-1.25,15.78-.41,3.77-1.17,7.51-1.97,11.22-.3,1.41-1.01,2.79-1.76,4.04-.44.73-1.26,1.33-2.04,1.72-1.39.69-2.7.19-3.31-1.26-.43-1.02-.67-2.14-.87-3.24-.64-3.45-1.21-6.92-1.82-10.38-.81-4.57-1.86-9.08-3.22-13.53-.82-2.69-1.44-5.44-3.1-7.8-.44-.62-.73-1.38-.94-2.11-.82-2.91-2.42-5.36-4.28-7.69-2.38-2.97-4.56-6.07-5.95-9.67-.45-1.16-1.25-2.2-1.99-3.23-2.39-3.3-4.82-6.58-7.25-9.85-4.25-5.7-9.28-10.54-15.54-14.02-2.34-1.3-4.72-2.54-6.95-4-3.55-2.33-7.55-3.62-11.58-4.44-9.92-2.01-19.51-1.19-28.1,5.01-.07-.13-.14-.26-.21-.39Z"/>
    <path class="cls-2" d="M2025.68,172.41c-4.65,3.4-9.65,7.05-14.64,10.71-.34.25-.65.54-.94.85-.84.89-1.77,1.39-3,.8-1.19-.58-1.84-1.54-1.86-2.84,0-.76.2-1.53.35-2.28.26-1.31.71-2.6.8-3.92.37-5.09,2.02-9.75,4.43-14.2,2.18-4.02,4.22-8.12,6.4-12.14,3.37-6.21,7.48-11.88,12.16-17.19,3.69-4.18,7.92-7.55,12.83-10.16,2.73-1.45,5.67-2.07,8.59-2.82,8.2-2.1,16.39-1.85,24.36.85,5.11,1.73,10.15,3.79,14.64,6.96,1.43,1.01,3.04,1.77,4.54,2.68.65.4,1.33.81,1.84,1.37,4.94,5.4,9.85,10.82,14.75,16.26.56.62,1.05,1.33,1.5,2.04,3.9,6.19,7.85,12.36,11.64,18.62,1.12,1.85,1.71,4.01,2.67,5.96,1.05,2.15,2.26,4.22,3.33,6.36.57,1.13,1.12,2.29,1.43,3.5.21.84.17,1.84-.08,2.68-.7,2.34-3.86,3.14-5.48,1.58-2.02-1.95-4.17-3.78-6.38-5.53-5.46-4.32-10.81-8.81-16.53-12.77-6.86-4.75-14.26-8.45-22.72-9.69-5.09-.75-10.13-1.84-15.31-1.34-7.88.76-15.55,2.51-23.01,5.15-1.25.44-2.44,1.09-3.62,1.72-4.1,2.17-8.19,4.37-12.68,6.78Z"/>
  </g>
  <g>
    <path class="cls-2" d="M672.44,187.87c-.11-.35-.35-.71-.32-1.04.41-4.33.84-8.65,1.32-12.97.22-2.01.59-4,.85-6.01.88-6.69,1.64-13.4,2.64-20.07.92-6.12,3.12-11.89,5.5-17.56.71-1.7,1.8-3.33,3.06-4.68,4.98-5.37,11.04-9.09,18.31-10.25,3.66-.58,7.51-.52,11.21-.13,2.38.25,4.75,1.38,6.92,2.52,3.39,1.78,6.47,4.04,9.14,6.87,2.06,2.18,4.35,4.14,6.43,6.3,1.71,1.78,3.36,3.63,4.88,5.58,4.17,5.31,8.26,10.69,12.38,16.04,4.68,6.06,10.39,11.01,16.58,15.45,3.84,2.75,7.52,5.74,11.86,7.73.68.31,1.36.64,2.03.96,3.36,1.61,6.84,2.58,10.64,2.28,2.24-.18,4.5-.06,6.75-.03,2.24.03,4.36-.42,6.19-1.7,3.13-2.19,6.38-4.27,9.23-6.8,5.66-5.03,11.15-10.27,16.58-15.55,3.19-3.1,5.57-6.87,7.8-10.71,3.43-5.9,6.9-11.78,10.17-17.78,4.3-7.9,8.32-15.96,12.64-23.86,5.6-10.24,11.96-19.97,20.34-28.2,5.67-5.57,11.4-11.1,17.36-16.35,3.13-2.76,6.79-4.92,10.26-7.28,2.91-1.99,5.97-3.76,8.81-5.84,6.68-4.88,14.11-8.08,22.23-9.23,6.68-.95,13.47-1.01,20.07,1.08,6.63,2.1,12.82,5.03,18.24,9.51,3.17,2.63,6.63,4.91,9.91,7.41,6.92,5.29,11.92,12.2,16.32,19.6.69,1.16,1.33,2.35,2.07,3.48,4.83,7.33,9.68,14.64,14.53,21.96,3.28,4.96,6.05,10.17,8.31,15.68,1.33,3.25,3.01,6.37,4.65,9.48,2.66,5.04,5.69,9.9,8.07,15.06,2.49,5.42,6.13,9.89,9.94,14.36,5.27,6.19,12.07,10.02,19.29,13.29,1.19.54,2.62.58,3.94.84,6.93,1.39,13.88,1.23,20.83.26,1.54-.22,3.06-.71,4.55-1.17,1.72-.53,3.39-1.22,5.11-1.73,5.74-1.7,10.62-4.79,14.83-9.01,1.11-1.11,2.33-2.11,3.5-3.16,1.5-1.36,3.13-2.6,4.48-4.09,6.91-7.62,13.39-15.59,19.16-24.12,3.37-4.99,7.2-9.6,11.42-13.89.95-.96,1.91-1.92,2.77-2.96,5.42-6.52,12.16-11.31,19.54-15.33,2.16-1.18,4.11-2.74,6.23-4,1.59-.95,3.28-1.76,4.97-2.53,1.02-.46,2.11-.76,3.19-1.09,1.22-.37,2.43-.79,3.68-1.01,3.09-.55,6.2-1.03,9.31-1.47,1.56-.22,3.13-.34,4.7-.36,3.83-.06,7.66,0,11.48-.06,9.43-.15,17.83,2.79,25.4,8.31,5.65,4.13,11.04,8.53,15.66,13.83,1.43,1.64,3.01,3.15,4.59,4.65,5.8,5.51,10.79,11.7,14.95,18.5,3.56,5.82,6.76,11.85,10.17,17.77,4.46,7.74,8.34,15.78,12.1,23.87,2.97,6.38,5.68,12.89,8.51,19.34h-648.25Z"/>
    <path class="cls-2" d="M739.42,69.89c-6.09-4.14-12.86-6.53-20.04-7.86-2.1-.39-4.23-.61-6.35-.86-.53-.06-1.08-.01-1.62.05-1.5.17-2.99.35-4.48.58-5.01.77-9.95,1.81-14.62,3.91-3.52,1.58-6.66,3.72-9.66,6.12-1.53,1.22-3.04,2.46-4.37,3.9-.43.46-.85.94-1.23,1.44-1.52,2.02-3.06,4.03-4.53,6.09-.62.88-1.12,1.85-1.56,2.83-1.29,2.89-2.31,5.88-3.29,8.88-.56,1.71-1.3,3.37-1.59,5.17-.11.71-.2,1.43-.32,2.14-.14.86-.32,1.71-.46,2.57-.32,1.99-.67,3.97-.93,5.97-.17,1.32.04,2.65.3,3.95.25,1.22.88,2.24,1.81,3.06.94.83,1.99.91,3.09.32.93-.5,1.62-1.26,2.26-2.05.76-.93,1.46-1.92,2.16-2.89.76-1.05,1.5-2.11,2.25-3.16.91-1.27,1.8-2.56,2.74-3.81,1.02-1.38,2.05-2.76,3.14-4.08,1.37-1.66,3.12-2.92,4.86-4.15,1.86-1.32,3.83-2.5,5.77-3.71,2.16-1.34,4.56-2.19,6.91-3.12.69-.27,1.46-.37,2.2-.51,1.84-.34,3.67-.76,5.52-.95,2.39-.25,4.8-.31,7.21-.46,4.03-.24,7.69,1.2,11.33,2.62.89.35,1.71.87,2.57,1.32,3.54,1.83,6.92,3.92,10.17,6.21,1.57,1.11,3.06,2.34,4.57,3.54,1.95,1.56,3.9,3.13,5.8,4.75,2.43,2.07,4.66,4.35,6.8,6.72,2.54,2.81,5.17,5.55,7.65,8.41,1.18,1.36,2.11,2.92,3.13,4.41.68.99,1.3,2.01,2.24,2.81.49.41.95.62,1.55.45.62-.18.95-.65,1.01-1.26.09-.9.15-1.8.17-2.7.02-1.11.04-2.23-.04-3.34-.3-4.19-.98-8.31-2.54-12.25-.33-.84-.65-1.69-.88-2.56-1.1-4.24-2.99-8.13-5.11-11.93-.19-.34-.41-.67-.58-1.02-2.42-4.93-5.78-9.22-9.3-13.38-1.57-1.86-3.26-3.63-4.99-5.34-1.17-1.16-2.56-2.11-3.75-3.25-1.5-1.43-3.29-2.43-4.98-3.57Z"/>
  </g>
  <path class="cls-1" d="M521.56,177.82c-1.43,0-2.85.05-4.28-.01-1.49-.06-3.07.03-4.46-.41-1.91-.61-3.8-.79-5.76-.72-8.62.32-16.8-1.93-24.88-4.51-4.13-1.32-7.66-3.81-10.85-6.7-6.93-6.29-12.3-13.76-16.07-22.31-2.26-5.14-4.36-10.37-5.3-15.98-1.1-6.62-1.52-13.27-1.1-19.96.09-1.42.31-2.84.65-4.22.96-3.86,1.71-7.81,3.13-11.49,1.63-4.25,3.78-8.32,5.92-12.36,1.4-2.64,3.23-5.06,4.8-7.61,2.27-3.7,5.29-6.7,8.61-9.43,1.8-1.48,3.62-2.93,5.35-4.49,4.37-3.92,9.58-6.43,14.84-8.82,1.74-.79,3.75-1.01,5.66-1.39,3.38-.67,6.76-1.45,10.18-1.85,6.8-.78,13.6-.9,20.4.27,7.35,1.27,14.37,3.58,21.22,6.49,3.27,1.39,6.11,3.46,8.98,5.52,6.22,4.46,10.63,10.53,15.19,16.49,2.29,2.99,3.31,6.54,4.28,10.09,1.38,5.06,2.7,10.14,4.07,15.2,1.2,4.42,1.11,8.95.81,13.43-.37,5.53-.93,11.06-1.73,16.54-.66,4.55-2.28,8.86-4.56,12.86-2,3.52-4.03,7.03-6.29,10.38-4.69,6.95-10.83,12.4-18,16.72-2.9,1.75-6.04,2.96-9.08,4.41-6.96,3.31-14.29,3.71-21.74,3.88Z"/>
  <g>
    <path class="cls-4" d="M138.78,23.23c3.62,0,6.04.06,8.46-.01,3.65-.1,7.24.32,10.85.76,3.26.4,6.53.72,9.8.9,7.83.44,15.38,2.16,22.75,4.74,1.83.64,3.61,1.56,5.24,2.62,6.15,4.01,11.88,8.52,16.48,14.35,5.82,7.37,10.14,15.48,12.48,24.62.78,3.06,1.75,6.08,2.73,9.09,1.11,3.4,2.24,6.78,2.57,10.37.02.17.04.34.08.51,2.03,7.69,2.83,15.62,4.52,23.38.2.9.44,1.79.73,2.66,1.26,3.71,2.53,7.41,3.82,11.1.3.87.65,1.73,1.08,2.54,2.52,4.79,5.05,9.58,7.6,14.35,1.26,2.35,2.86,4.44,4.91,6.2,5.3,4.53,10.16,9.56,15.83,13.65,3.66,2.65,7.61,4.71,11.84,6.33,5.6,2.15,11.34,3.82,17.06,5.59,2.24.69,4.61.99,6.92,1.47,4.84,1.01,9.68,2.07,14.53,3.04,1.86.37,3.75.73,5.64.78,3.7.09,7.35.51,10.98,1.19,1.98.37,3.98.64,5.97.97.62.1,1.25.22,1.86.39,1.52.41,2.37,1.31,2.44,2.56.07,1.32-.71,2.37-2.31,2.84-2.2.64-4.45,1.15-6.65,1.78-1.71.49-3.39,1.1-5.1,1.61-7.88,2.36-15.76,4.67-23.98,5.73-7.62.98-15.24,1.53-22.91,1.71-2.07.05-4.14.17-6.22.25-5.9.23-11.73-.31-17.54-1.33-6.98-1.23-13.86-2.88-20.6-5.09-8.29-2.73-15.76-7.04-22.83-12.06-5.97-4.24-10.78-9.55-13.93-16.22-1.32-2.8-2.39-5.73-3.59-8.59-.69-1.64-1.42-3.27-2.13-4.91-1.07-2.46-1.45-5.08-1.73-7.72-.39-3.72-.73-7.45-1.25-11.16-.81-5.87-1.85-11.71-3.46-17.43-.51-1.83-.8-3.72-1.29-5.55-.62-2.33-1.3-4.65-2.03-6.95-.89-2.8-1.91-5.55-2.76-8.36-.64-2.11-1.5-4.1-2.63-5.99-1.8-3.02-3.48-6.1-5.33-9.09-1.12-1.81-2.36-3.56-3.73-5.18-4.09-4.84-8.09-9.78-12.46-14.36-4.61-4.83-9.51-9.39-15.25-12.94-2.4-1.48-4.57-3.32-6.92-4.88-1.03-.69-2.25-1.1-3.4-1.6-.63-.27-1.38-.34-1.94-.7-3.11-2.02-6.76-2.89-9.99-4.66-.74-.41-1.61-.6-2.44-.81-1.4-.34-2.82-.59-4.21-.93-2.4-.58-4.79-1.21-7.19-1.82-.11-.03-.23-.04-.34-.07-1.94-.47-2.92-1.4-3-2.86-.09-1.45.71-2.68,2.55-3.29,2.18-.72,4.42-1.3,6.67-1.73,4.76-.9,9.58-1.32,14.43-1.48,3.17-.1,6.33-.24,8.31-.32Z"/>
    <path class="cls-4" d="M310.61,171.33c-1.48.87-2.69.71-3.95.36-3.9-1.07-7.66-2.47-11.15-4.57-.88-.53-1.87-.89-2.84-1.24-4.41-1.58-8.05-4.45-11.87-7-3.78-2.53-7.44-5.23-11.12-7.91-4-2.91-7.29-6.52-10.15-10.53-2-2.82-4.02-5.62-5.95-8.49-2.06-3.06-4.04-6.15-5.25-9.69-.71-2.07-1.55-4.09-2.46-6.08-1.5-3.31-2.04-6.82-2.43-10.37-.04-.4-.03-.81-.09-1.2-.5-3.06-1.01-6.13-1.51-9.19-.08-.51-.14-1.04-.09-1.55.25-2.51.14-5.05.84-7.53.31-1.09.23-2.28.38-3.42.2-1.53.37-3.08.72-4.59.67-2.92,1.48-5.8,2.17-8.71.38-1.59.99-3.04,1.83-4.45,1.29-2.18,2.42-4.45,3.65-6.66.45-.8.88-1.65,1.5-2.31,4.68-4.95,9.57-9.66,15.56-13.06,2.45-1.39,4.78-3,7.22-4.42,1.39-.81,2.83-1.57,4.32-2.15,4.51-1.74,9.01-3.51,13.6-5.02,5.69-1.88,11.56-3.07,17.44-4.25,5.53-1.11,11.07-2.14,16.54-3.56,5.17-1.35,10.51-1.97,15.91-1.97,6.62,0,13.25-.18,19.87-.27.52,0,1.04-.02,1.56.03,1.38.13,2.35.93,2.63,2.12.26,1.09-.23,2.21-1.33,2.96-.43.29-.9.51-1.37.73-3.66,1.69-7.39,3.24-10.96,5.1-3.62,1.89-7.08,4.08-10.6,6.16-.99.59-1.88,1.38-2.93,1.83-3.49,1.48-6.47,3.74-9.5,5.93-3.92,2.84-7.93,5.54-11.78,8.47-4.53,3.45-9.06,6.93-12.83,11.28-.41.48-.83.97-1.32,1.37-2.54,2.14-4.32,4.9-6.27,7.53-1,1.34-1.95,2.73-3.08,3.95-3.34,3.62-5.68,7.86-7.22,12.45-1.81,5.4-3.18,10.96-3.68,16.66-.29,3.27-.3,6.56-.46,9.83-.24,4.62.68,9.06,2.12,13.4,1.56,4.7,3.24,9.35,4.91,14.01.27.75.65,1.48,1.09,2.15,2.49,3.87,4.95,7.77,7.55,11.57,2.49,3.62,5.41,6.88,8.55,9.95.73.71,1.4,1.49,2.24,2.38Z"/>
  </g>
  <g>
    <path class="cls-3" d="M1476.37,205.38c-.78,0-1.57.03-2.35,0-.82-.03-1.68.02-2.45-.23-1.05-.33-2.09-.43-3.16-.39-4.74.18-9.23-1.06-13.67-2.48-2.27-.72-4.21-2.09-5.96-3.68-3.81-3.46-6.76-7.56-8.83-12.26-1.24-2.82-2.4-5.7-2.91-8.78-.61-3.64-.84-7.29-.6-10.97.05-.78.17-1.56.36-2.32.53-2.12.94-4.29,1.72-6.31.9-2.34,2.08-4.57,3.25-6.79.77-1.45,1.78-2.78,2.64-4.18,1.25-2.03,2.9-3.68,4.73-5.18.99-.81,1.99-1.61,2.94-2.46,2.4-2.15,5.26-3.53,8.15-4.85.96-.43,2.06-.56,3.11-.76,1.86-.37,3.71-.8,5.59-1.01,3.73-.43,7.47-.5,11.21.15,4.04.7,7.9,1.96,11.66,3.57,1.8.77,3.35,1.9,4.94,3.03,3.42,2.45,5.84,5.79,8.34,9.06,1.26,1.64,1.82,3.59,2.35,5.54.76,2.78,1.48,5.57,2.23,8.35.66,2.43.61,4.91.45,7.38-.2,3.04-.51,6.07-.95,9.09-.36,2.5-1.25,4.87-2.5,7.07-1.1,1.93-2.21,3.86-3.45,5.7-2.58,3.82-5.95,6.81-9.89,9.18-1.59.96-3.32,1.63-4.99,2.42-3.82,1.82-7.85,2.04-11.94,2.13Z"/>
    <path class="cls-3" d="M1905.92,125.12c-3.02,7.25-6.63,13.78-10.64,20.05-3.12,4.88-6.82,9.36-11.26,13.16-4,3.42-7.98,6.86-11.95,10.3-1.88,1.63-4.05,2.74-6.39,3.51-3.99,1.32-7.97,2.65-12,3.86-2.08.62-4.24.96-6.36,1.45-.67.16-1.4.27-1.96.63-.88.55-1.77.59-2.74.56-1.75-.05-3.5-.03-5.25-.04-.16,0-.32.03-.48,0-7.21-.91-14.47-1.34-21.6-2.99-4.85-1.13-9.24-3.09-13.51-5.5-1.66-.94-3.36-1.85-5.09-2.66-4.11-1.94-7.78-4.58-11.51-7.13-2.77-1.89-5.62-3.6-8.64-5.1-3.81-1.89-7.47-4.07-11.2-6.12-.65-.36-1.31-.7-1.97-1.05-2.87-1.51-5.71-3.08-8.61-4.52-1.9-.94-3.89-1.71-5.85-2.52-2.06-.84-4.14-1.66-6.23-2.44-2.23-.84-4.48-1.65-6.73-2.45-.75-.27-1.57-.38-2.27-.74-2.99-1.57-6.23-2.01-9.53-2.3-1.68-.15-3.34-.57-5.03-.72-2.62-.24-5.21.09-7.71.91-8.91,2.9-17.75,5.98-25.93,10.65-8.2,4.68-15.89,10.07-23.22,16.01-5.54,4.49-11.14,8.89-17.13,12.76-4.05,2.61-8.28,4.84-13.06,5.77-1.77.35-3.58.51-5.37.71-3.06.34-6.13.68-9.2.96-3.3.29-6.57,0-9.83-.6-3.55-.66-7.13-1.16-10.7-1.71-2.54-.39-4.98-1.11-7.33-2.15-4.28-1.89-8.55-3.8-12.42-6.51-1.43-1-3.06-1.71-4.63-2.49-3.37-1.66-6.35-3.86-9.12-6.38-.35-.32-.7-.66-1.01-1.01-2.73-3.04-5.51-6.05-8.15-9.16-1.37-1.61-2.48-3.45-3.72-5.17-1.08-1.5-2.18-3-3.28-4.49-.82-1.11-1.69-2.19-2.5-3.31-3.03-4.17-6.04-8.35-9.07-12.52-.75-1.03-1.46-2.11-2.32-3.04-3.44-3.75-6.64-7.72-10.33-11.24-.42-.4-.9-.76-1.3-1.17-3.05-3.13-6.71-5.34-10.63-7.19-2.11-1-4.15-2.16-6.2-3.28-2.25-1.23-4.5-2.4-7.08-2.8-.94-.15-1.86-.45-2.77-.73-2.4-.75-4.85-1.15-7.36-1.26-4.67-.21-9.34-.51-14.01-.7-1.16-.05-2.33.14-3.49.28-2.32.29-4.65.54-6.95.96-2.51.46-4.98,1.1-7.47,1.66-1.55.35-3.11.68-4.66,1.04-.72.17-1.45.35-2.15.59-4.28,1.47-8.61,2.8-12.8,4.48-3.75,1.49-7.35,3.35-11,5.08-2.5,1.19-5,2.38-7.43,3.69-2.19,1.18-4.35,2.46-6.43,3.83-2.04,1.34-3.98,2.85-5.94,4.31-.64.47-1.21.78-2.01.28-.84-.53-1.7-1.06-1.54-2.19.18-1.2.45-2.41.84-3.55.8-2.36,2.29-4.3,3.98-6.1,1.45-1.55,2.88-3.13,4.36-4.65.96-.99,2.06-1.84,3.01-2.83,2.36-2.44,4.91-4.68,7.52-6.86.85-.71,1.58-1.58,2.33-2.4,2.32-2.51,4.86-4.74,7.78-6.55.49-.3.95-.69,1.36-1.1,2.76-2.76,5.86-5.08,9.08-7.24,1.28-.86,2.61-1.64,3.97-2.35,2.04-1.07,3.85-2.43,5.57-3.96,1.1-.98,2.3-1.91,3.6-2.6,3.61-1.92,7.29-3.7,10.95-5.53,1.57-.78,3.16-1.53,4.73-2.32,3.97-2.01,8.15-3.36,12.54-4.1,6.99-1.18,13.99-1.99,21.1-1.79,9.22.26,18,2.25,26.4,6.04,4.08,1.84,8.11,3.75,11.61,6.6,3.63,2.96,6.89,6.24,9.9,9.88,3.85,4.67,7.21,9.74,11.52,14.04,1.38,1.38,2.46,3.06,3.64,4.64,3.59,4.82,6.86,9.91,10.81,14.41,4.99,5.69,10.01,11.47,16.77,15.27,4.11,2.31,8.52,3.85,13.14,4.76,5.98,1.18,11.93,1.29,17.82-.53.76-.24,1.54-.43,2.28-.73,6.62-2.78,13.2-5.66,19.39-9.35,3.74-2.23,7.65-4.2,11.35-6.5,4.11-2.54,8.04-5.38,12.12-7.98,2.75-1.75,5.34-3.65,7.68-5.93,1.1-1.07,2.37-1.97,3.66-2.81,4.58-3.01,9.18-5.97,13.8-8.92,1.43-.92,2.91-1.77,4.39-2.61,5.12-2.88,10.61-4.29,16.51-4.14,3.08.08,6.17-.03,9.25,0,3.84.03,7.65.4,11.39,1.25,1.8.41,3.53,1.13,5.3,1.72.35.12.68.34,1.04.39,2.79.42,5.26,1.69,7.75,2.87,2.88,1.37,5.78,2.72,8.56,4.26,1.9,1.05,3.62,2.38,5.54,3.43,1.37.75,2.48,1.98,3.66,3.04.87.78,1.62,1.69,2.52,2.44,2.86,2.37,5.79,4.65,8.64,7.04,3.01,2.53,5.93,5.16,8.95,7.68,1.01.85,2.2,1.48,3.3,2.22,2.15,1.46,4.22,3.07,6.47,4.37,2.98,1.73,5.63,4.02,8.89,5.3,2.97,1.17,5.89,2.46,8.88,3.56,1.22.45,2.58.62,3.89.73,4.87.41,9.74.78,14.62,1.09,1.8.11,3.63.16,5.41-.03,4.73-.5,9.4-1.5,13.62-3.74,4.52-2.41,8.62-5.45,11.81-9.56.55-.71,1.11-1.43,1.69-2.12,3.02-3.61,4.83-7.85,6.42-12.22,1.79-4.92,2.85-10,3.58-15.16.59-4.24.42-8.48-.26-12.71-.52-3.22-2.22-5.96-3.56-8.84-.18-.38-.48-.72-.6-1.12-.72-2.31-2.06-4.16-3.97-5.65-1.42-1.11-2.74-2.34-4.1-3.53-3.36-2.92-7.43-3.97-11.73-4.42-3.56-.37-7.1-.28-10.66.04-2.7.24-4.93,1.59-7.25,2.76-3.1,1.57-5.33,4.01-6.87,7.09-.66,1.33-1.23,2.72-1.94,4.02-1.09,2.02-1.26,4.24-.96,6.37.46,3.32,1.3,6.6,3.52,9.28.4.48.84.99,1.37,1.29,1.62.91,3.28,1.76,4.95,2.58,2.29,1.11,4.51.87,6.69-.39,2.09-1.21,3.72-2.77,4.51-5.15.45-1.37.04-3.28-1.1-4.18-.59-.46-1.23-.84-1.8-1.31-1.01-.83-1.61-1.85-1.26-3.21.34-1.33,1.26-2.06,2.57-2.31.52-.1,1.05-.17,1.58-.19,2.71-.08,7.31,2.12,8.94,4.29,1.3,1.74,2.82,3.38,3.79,5.3,2.59,5.17,3.21,10.53.72,15.97-.95,2.08-1.81,4.21-2.88,6.23-1.85,3.5-4.54,6.22-7.97,8.25-7.91,4.68-16.36,5.11-25.14,3.44-6.06-1.15-11.32-3.89-16.05-7.76-1.15-.94-2.31-1.87-3.46-2.82-3.01-2.48-5.29-5.51-6.82-9.1-.31-.73-.65-1.46-1.03-2.16-4.66-8.35-5.72-17.32-4.89-26.71.54-6.06,2.39-11.63,5.24-16.94,1.38-2.58,2.64-5.22,4.03-7.8.76-1.4,1.53-2.84,2.55-4.03,3.45-4,7.14-7.86,11.93-10.18,4.63-2.24,9.51-3.97,14.34-5.78,1.47-.55,3.11-.75,4.69-.88,5.94-.46,11.9-.5,17.84-.04,1.53.12,3.03.52,4.55.75,1.41.21,2.83.44,4.26.51,1.51.07,2.95.3,4.32.97,5.16,2.52,10.35,4.98,15.49,7.53,5.29,2.62,9.86,6.25,14.05,10.37.53.52,1.04,1.07,1.46,1.68,3.76,5.41,7.65,10.74,10.62,16.66,3.73,7.44,6.54,15.13,6.32,23.64-.02.9.03,1.82.17,2.7.74,4.46.44,8.9-.17,13.34-.07.47-.18.95-.2,1.42-.23,6.92-2.68,13.3-4.83,19.73-.97,2.91-2.51,5.63-3.63,8.09Z"/>
  </g>
  <g>
    <path class="cls-4" d="M4175.45,96.21c-4.77,3.83-9.64,7.54-14.28,11.53-4.3,3.69-7.44,8.42-10.66,13.04-1.17,1.67-2.3,3.38-3.31,5.15-4.24,7.46-9.7,14.18-13.29,22.03-.94,2.05-1.81,4.13-2.82,6.14-.75,1.5-1.54,3.01-2.55,4.35-1.12,1.48-2.74,1.81-4.13,1.17-1.38-.63-2.04-2.03-1.79-3.91.25-1.88.61-3.75.82-5.64.21-1.88.29-3.78.41-5.67.09-1.47.01-2.97.25-4.42.71-4.38,1.57-8.73,2.3-13.11.34-2.08.63-4.18.72-6.28.16-3.6.73-7.11,1.57-10.62,1.02-4.23,1.55-8.59,2.57-12.83,1.4-5.82,2.92-11.62,5.9-16.9,1.17-2.08,2.46-4.09,3.71-6.13,2.72-4.44,5.43-8.89,8.16-13.32,4.82-7.82,11.58-13.57,19.58-17.85,3.96-2.12,8.02-4.19,12.24-5.69,7.28-2.58,14.82-3.93,22.61-3.11,2.24.24,4.49.38,6.73.58.56.05,1.13.09,1.67.23,4.14,1.08,8.38,1.78,12.33,3.62,3.5,1.64,7.23,2.81,10.68,4.53,3,1.5,5.93,3.26,8.6,5.29,2.61,1.99,4.93,4.39,7.25,6.74,2.12,2.14,4.15,4.39,6.08,6.7,3.15,3.76,5.25,8.16,7.25,12.59,1.79,3.97,3.45,8.01,5.15,12.02,2.21,5.22,3.45,10.71,4.43,16.26,1.18,6.65,2.26,13.31,3.34,19.98.21,1.31.27,2.66.34,3.99.17,2.95.28,5.9.46,8.84.31,4.85.41,9.66-.21,14.53-.67,5.23-.68,10.54-1.25,15.78-.41,3.77-1.17,7.51-1.97,11.22-.3,1.41-1.01,2.79-1.76,4.04-.44.73-1.26,1.33-2.04,1.72-1.39.69-2.7.19-3.31-1.26-.43-1.02-.67-2.14-.87-3.24-.64-3.45-1.21-6.92-1.82-10.38-.81-4.57-1.86-9.08-3.22-13.53-.82-2.69-1.44-5.44-3.1-7.8-.44-.62-.73-1.38-.94-2.11-.82-2.91-2.42-5.36-4.28-7.69-2.38-2.97-4.56-6.07-5.95-9.67-.45-1.16-1.25-2.2-1.99-3.23-2.39-3.3-4.82-6.58-7.25-9.85-4.25-5.7-9.28-10.54-15.54-14.02-2.34-1.3-4.72-2.54-6.95-4-3.55-2.33-7.55-3.62-11.58-4.44-9.92-2.01-19.51-1.19-28.1,5.01-.07-.13-.14-.26-.21-.39Z"/>
    <path class="cls-4" d="M4151.88,172.41c-4.65,3.4-9.65,7.05-14.64,10.71-.34.25-.65.54-.94.85-.84.89-1.77,1.39-3,.8-1.19-.58-1.84-1.54-1.86-2.84,0-.76.2-1.53.35-2.28.26-1.31.71-2.6.8-3.92.37-5.09,2.02-9.75,4.43-14.2,2.18-4.02,4.22-8.12,6.4-12.14,3.37-6.21,7.48-11.88,12.16-17.19,3.69-4.18,7.92-7.55,12.83-10.16,2.73-1.45,5.67-2.07,8.59-2.82,8.2-2.1,16.39-1.85,24.36.85,5.11,1.73,10.15,3.79,14.64,6.96,1.43,1.01,3.04,1.77,4.54,2.68.65.4,1.33.81,1.84,1.37,4.94,5.4,9.85,10.82,14.75,16.26.56.62,1.05,1.33,1.5,2.04,3.9,6.19,7.85,12.36,11.64,18.62,1.12,1.85,1.71,4.01,2.67,5.96,1.05,2.15,2.26,4.22,3.33,6.36.57,1.13,1.12,2.29,1.43,3.5.21.84.17,1.84-.08,2.68-.7,2.34-3.86,3.14-5.48,1.58-2.02-1.95-4.17-3.78-6.38-5.53-5.46-4.32-10.81-8.81-16.53-12.77-6.86-4.75-14.26-8.45-22.72-9.69-5.09-.75-10.13-1.84-15.31-1.34-7.88.76-15.55,2.51-23.01,5.15-1.25.44-2.44,1.09-3.62,1.72-4.1,2.17-8.19,4.37-12.68,6.78Z"/>
  </g>
  <g>
    <path class="cls-1" d="M2798.64,187.87c-.11-.35-.35-.71-.32-1.04.41-4.33.84-8.65,1.32-12.97.22-2.01.59-4,.85-6.01.88-6.69,1.64-13.4,2.64-20.07.92-6.12,3.12-11.89,5.5-17.56.71-1.7,1.8-3.33,3.06-4.68,4.98-5.37,11.04-9.09,18.31-10.25,3.66-.58,7.51-.52,11.21-.13,2.38.25,4.75,1.38,6.92,2.52,3.39,1.78,6.47,4.04,9.14,6.87,2.06,2.18,4.35,4.14,6.43,6.3,1.71,1.78,3.36,3.63,4.88,5.58,4.17,5.31,8.26,10.69,12.38,16.04,4.68,6.06,10.39,11.01,16.58,15.45,3.84,2.75,7.52,5.74,11.86,7.73.68.31,1.36.64,2.03.96,3.36,1.61,6.84,2.58,10.64,2.28,2.24-.18,4.5-.06,6.75-.03,2.24.03,4.36-.42,6.19-1.7,3.13-2.19,6.38-4.27,9.23-6.8,5.66-5.03,11.15-10.27,16.58-15.55,3.19-3.1,5.57-6.87,7.8-10.71,3.43-5.9,6.9-11.78,10.17-17.78,4.3-7.9,8.32-15.96,12.64-23.86,5.6-10.24,11.96-19.97,20.34-28.2,5.67-5.57,11.4-11.1,17.36-16.35,3.13-2.76,6.79-4.92,10.26-7.28,2.91-1.99,5.97-3.76,8.81-5.84,6.68-4.88,14.11-8.08,22.23-9.23,6.68-.95,13.47-1.01,20.07,1.08,6.63,2.1,12.82,5.03,18.24,9.51,3.17,2.63,6.63,4.91,9.91,7.41,6.92,5.29,11.92,12.2,16.32,19.6.69,1.16,1.33,2.35,2.07,3.48,4.83,7.33,9.68,14.64,14.53,21.96,3.28,4.96,6.05,10.17,8.31,15.68,1.33,3.25,3.01,6.37,4.65,9.48,2.66,5.04,5.69,9.9,8.07,15.06,2.49,5.42,6.13,9.89,9.94,14.36,5.27,6.19,12.07,10.02,19.29,13.29,1.19.54,2.62.58,3.94.84,6.93,1.39,13.88,1.23,20.83.26,1.54-.22,3.06-.71,4.55-1.17,1.72-.53,3.39-1.22,5.11-1.73,5.74-1.7,10.62-4.79,14.83-9.01,1.11-1.11,2.33-2.11,3.5-3.16,1.5-1.36,3.13-2.6,4.48-4.09,6.91-7.62,13.39-15.59,19.16-24.12,3.37-4.99,7.2-9.6,11.42-13.89.95-.96,1.91-1.92,2.77-2.96,5.42-6.52,12.16-11.31,19.54-15.33,2.16-1.18,4.11-2.74,6.23-4,1.59-.95,3.28-1.76,4.97-2.53,1.02-.46,2.11-.76,3.19-1.09,1.22-.37,2.43-.79,3.68-1.01,3.09-.55,6.2-1.03,9.31-1.47,1.56-.22,3.13-.34,4.7-.36,3.83-.06,7.66,0,11.48-.06,9.43-.15,17.83,2.79,25.4,8.31,5.65,4.13,11.04,8.53,15.66,13.83,1.43,1.64,3.01,3.15,4.59,4.65,5.8,5.51,10.79,11.7,14.95,18.5,3.56,5.82,6.76,11.85,10.17,17.77,4.46,7.74,8.34,15.78,12.1,23.87,2.97,6.38,5.68,12.89,8.51,19.34h-648.25Z"/>
    <path class="cls-1" d="M2865.62,69.89c-6.09-4.14-12.86-6.53-20.04-7.86-2.1-.39-4.23-.61-6.35-.86-.53-.06-1.08-.01-1.62.05-1.5.17-2.99.35-4.48.58-5.01.77-9.95,1.81-14.62,3.91-3.52,1.58-6.66,3.72-9.66,6.12-1.53,1.22-3.04,2.46-4.37,3.9-.43.46-.85.94-1.23,1.44-1.52,2.02-3.06,4.03-4.53,6.09-.62.88-1.12,1.85-1.56,2.83-1.29,2.89-2.31,5.88-3.29,8.88-.56,1.71-1.3,3.37-1.59,5.17-.11.71-.2,1.43-.32,2.14-.14.86-.32,1.71-.46,2.57-.32,1.99-.67,3.97-.93,5.97-.17,1.32.04,2.65.3,3.95.25,1.22.88,2.24,1.81,3.06.94.83,1.99.91,3.09.32.93-.5,1.62-1.26,2.26-2.05.76-.93,1.46-1.92,2.16-2.89.76-1.05,1.5-2.11,2.25-3.16.91-1.27,1.8-2.56,2.74-3.81,1.02-1.38,2.05-2.76,3.14-4.08,1.37-1.66,3.12-2.92,4.86-4.15,1.86-1.32,3.83-2.5,5.77-3.71,2.16-1.34,4.56-2.19,6.91-3.12.69-.27,1.46-.37,2.2-.51,1.84-.34,3.67-.76,5.52-.95,2.39-.25,4.8-.31,7.21-.46,4.03-.24,7.69,1.2,11.33,2.62.89.35,1.71.87,2.57,1.32,3.54,1.83,6.92,3.92,10.17,6.21,1.57,1.11,3.06,2.34,4.57,3.54,1.95,1.56,3.9,3.13,5.8,4.75,2.43,2.07,4.66,4.35,6.8,6.72,2.54,2.81,5.17,5.55,7.65,8.41,1.18,1.36,2.11,2.92,3.13,4.41.68.99,1.3,2.01,2.24,2.81.49.41.95.62,1.55.45.62-.18.95-.65,1.01-1.26.09-.9.15-1.8.17-2.7.02-1.11.04-2.23-.04-3.34-.3-4.19-.98-8.31-2.54-12.25-.33-.84-.65-1.69-.88-2.56-1.1-4.24-2.99-8.13-5.11-11.93-.19-.34-.41-.67-.58-1.02-2.42-4.93-5.78-9.22-9.3-13.38-1.57-1.86-3.26-3.63-4.99-5.34-1.17-1.16-2.56-2.11-3.75-3.25-1.5-1.43-3.29-2.43-4.98-3.57Z"/>
  </g>
  <path class="cls-4" d="M2647.76,177.82c-1.43,0-2.85.05-4.28-.01-1.49-.06-3.07.03-4.46-.41-1.91-.61-3.8-.79-5.76-.72-8.62.32-16.8-1.93-24.88-4.51-4.13-1.32-7.66-3.81-10.85-6.7-6.93-6.29-12.3-13.76-16.07-22.31-2.26-5.14-4.36-10.37-5.3-15.98-1.1-6.62-1.52-13.27-1.1-19.96.09-1.42.31-2.84.65-4.22.96-3.86,1.71-7.81,3.13-11.49,1.63-4.25,3.78-8.32,5.92-12.36,1.4-2.64,3.23-5.06,4.8-7.61,2.27-3.7,5.29-6.7,8.61-9.43,1.8-1.48,3.62-2.93,5.35-4.49,4.37-3.92,9.58-6.43,14.84-8.82,1.74-.79,3.75-1.01,5.66-1.39,3.38-.67,6.76-1.45,10.18-1.85,6.8-.78,13.6-.9,20.4.27,7.35,1.27,14.37,3.58,21.22,6.49,3.27,1.39,6.11,3.46,8.98,5.52,6.22,4.46,10.63,10.53,15.19,16.49,2.29,2.99,3.31,6.54,4.28,10.09,1.38,5.06,2.7,10.14,4.07,15.2,1.2,4.42,1.11,8.95.81,13.43-.37,5.53-.93,11.06-1.73,16.54-.66,4.55-2.28,8.86-4.56,12.86-2,3.52-4.03,7.03-6.29,10.38-4.69,6.95-10.83,12.4-18,16.72-2.9,1.75-6.04,2.96-9.08,4.41-6.96,3.31-14.29,3.71-21.74,3.88Z"/>
  <g>
    <path class="cls-1" d="M2264.98,23.23c3.62,0,6.04.06,8.46-.01,3.65-.1,7.24.32,10.85.76,3.26.4,6.53.72,9.8.9,7.83.44,15.38,2.16,22.75,4.74,1.83.64,3.61,1.56,5.24,2.62,6.15,4.01,11.88,8.52,16.48,14.35,5.82,7.37,10.14,15.48,12.48,24.62.78,3.06,1.75,6.08,2.73,9.09,1.11,3.4,2.24,6.78,2.57,10.37.02.17.04.34.08.51,2.03,7.69,2.83,15.62,4.52,23.38.2.9.44,1.79.73,2.66,1.26,3.71,2.53,7.41,3.82,11.1.3.87.65,1.73,1.08,2.54,2.52,4.79,5.05,9.58,7.6,14.35,1.26,2.35,2.86,4.44,4.91,6.2,5.3,4.53,10.16,9.56,15.83,13.65,3.66,2.65,7.61,4.71,11.84,6.33,5.6,2.15,11.34,3.82,17.06,5.59,2.24.69,4.61.99,6.92,1.47,4.84,1.01,9.68,2.07,14.53,3.04,1.86.37,3.75.73,5.64.78,3.7.09,7.35.51,10.98,1.19,1.98.37,3.98.64,5.97.97.62.1,1.25.22,1.86.39,1.52.41,2.37,1.31,2.44,2.56.07,1.32-.71,2.37-2.31,2.84-2.2.64-4.45,1.15-6.65,1.78-1.71.49-3.39,1.1-5.1,1.61-7.88,2.36-15.76,4.67-23.98,5.73-7.62.98-15.24,1.53-22.91,1.71-2.07.05-4.14.17-6.22.25-5.9.23-11.73-.31-17.54-1.33-6.98-1.23-13.86-2.88-20.6-5.09-8.29-2.73-15.76-7.04-22.83-12.06-5.97-4.24-10.78-9.55-13.93-16.22-1.32-2.8-2.39-5.73-3.59-8.59-.69-1.64-1.42-3.27-2.13-4.91-1.07-2.46-1.45-5.08-1.73-7.72-.39-3.72-.73-7.45-1.25-11.16-.81-5.87-1.85-11.71-3.46-17.43-.51-1.83-.8-3.72-1.29-5.55-.62-2.33-1.3-4.65-2.03-6.95-.89-2.8-1.91-5.55-2.76-8.36-.64-2.11-1.5-4.1-2.63-5.99-1.8-3.02-3.48-6.1-5.33-9.09-1.12-1.81-2.36-3.56-3.73-5.18-4.09-4.84-8.09-9.78-12.46-14.36-4.61-4.83-9.51-9.39-15.25-12.94-2.4-1.48-4.57-3.32-6.92-4.88-1.03-.69-2.25-1.1-3.4-1.6-.63-.27-1.38-.34-1.94-.7-3.11-2.02-6.76-2.89-9.99-4.66-.74-.41-1.61-.6-2.44-.81-1.4-.34-2.82-.59-4.21-.93-2.4-.58-4.79-1.21-7.19-1.82-.11-.03-.23-.04-.34-.07-1.94-.47-2.92-1.4-3-2.86-.09-1.45.71-2.68,2.55-3.29,2.18-.72,4.42-1.3,6.67-1.73,4.76-.9,9.58-1.32,14.43-1.48,3.17-.1,6.33-.24,8.31-.32Z"/>
    <path class="cls-1" d="M2436.81,171.33c-1.48.87-2.69.71-3.95.36-3.9-1.07-7.66-2.47-11.15-4.57-.88-.53-1.87-.89-2.84-1.24-4.41-1.58-8.05-4.45-11.87-7-3.78-2.53-7.44-5.23-11.12-7.91-4-2.91-7.29-6.52-10.15-10.53-2-2.82-4.02-5.62-5.95-8.49-2.06-3.06-4.04-6.15-5.25-9.69-.71-2.07-1.55-4.09-2.46-6.08-1.5-3.31-2.04-6.82-2.43-10.37-.04-.4-.03-.81-.09-1.2-.5-3.06-1.01-6.13-1.51-9.19-.08-.51-.14-1.04-.09-1.55.25-2.51.14-5.05.84-7.53.31-1.09.23-2.28.38-3.42.2-1.53.37-3.08.72-4.59.67-2.92,1.48-5.8,2.17-8.71.38-1.59.99-3.04,1.83-4.45,1.29-2.18,2.42-4.45,3.65-6.66.45-.8.88-1.65,1.5-2.31,4.68-4.95,9.57-9.66,15.56-13.06,2.45-1.39,4.78-3,7.22-4.42,1.39-.81,2.83-1.57,4.32-2.15,4.51-1.74,9.01-3.51,13.6-5.02,5.69-1.88,11.56-3.07,17.44-4.25,5.53-1.11,11.07-2.14,16.54-3.56,5.17-1.35,10.51-1.97,15.91-1.97,6.62,0,13.25-.18,19.87-.27.52,0,1.04-.02,1.56.03,1.38.13,2.35.93,2.63,2.12.26,1.09-.23,2.21-1.33,2.96-.43.29-.9.51-1.37.73-3.66,1.69-7.39,3.24-10.96,5.1-3.62,1.89-7.08,4.08-10.6,6.16-.99.59-1.88,1.38-2.93,1.83-3.49,1.48-6.47,3.74-9.5,5.93-3.92,2.84-7.93,5.54-11.78,8.47-4.53,3.45-9.06,6.93-12.83,11.28-.41.48-.83.97-1.32,1.37-2.54,2.14-4.32,4.9-6.27,7.53-1,1.34-1.95,2.73-3.08,3.95-3.34,3.62-5.68,7.86-7.22,12.45-1.81,5.4-3.18,10.96-3.68,16.66-.29,3.27-.3,6.56-.46,9.83-.24,4.62.68,9.06,2.12,13.4,1.56,4.7,3.24,9.35,4.91,14.01.27.75.65,1.48,1.09,2.15,2.49,3.87,4.95,7.77,7.55,11.57,2.49,3.62,5.41,6.88,8.55,9.95.73.71,1.4,1.49,2.24,2.38Z"/>
  </g>
  <g>
    <path class="cls-2" d="M3602.58,205.38c-.78,0-1.57.03-2.35,0-.82-.03-1.68.02-2.45-.23-1.05-.33-2.09-.43-3.16-.39-4.74.18-9.23-1.06-13.67-2.48-2.27-.72-4.21-2.09-5.96-3.68-3.81-3.46-6.76-7.56-8.83-12.26-1.24-2.82-2.4-5.7-2.91-8.78-.61-3.64-.84-7.29-.6-10.97.05-.78.17-1.56.36-2.32.53-2.12.94-4.29,1.72-6.31.9-2.34,2.08-4.57,3.25-6.79.77-1.45,1.78-2.78,2.64-4.18,1.25-2.03,2.9-3.68,4.73-5.18.99-.81,1.99-1.61,2.94-2.46,2.4-2.15,5.26-3.53,8.15-4.85.96-.43,2.06-.56,3.11-.76,1.86-.37,3.71-.8,5.59-1.01,3.73-.43,7.47-.5,11.21.15,4.04.7,7.9,1.96,11.66,3.57,1.8.77,3.35,1.9,4.94,3.03,3.42,2.45,5.84,5.79,8.34,9.06,1.26,1.64,1.82,3.59,2.35,5.54.76,2.78,1.48,5.57,2.23,8.35.66,2.43.61,4.91.45,7.38-.2,3.04-.51,6.07-.95,9.09-.36,2.5-1.25,4.87-2.5,7.07-1.1,1.93-2.21,3.86-3.45,5.7-2.58,3.82-5.95,6.81-9.89,9.18-1.59.96-3.32,1.63-4.99,2.42-3.82,1.82-7.85,2.04-11.94,2.13Z"/>
    <path class="cls-2" d="M4032.13,125.12c-3.02,7.25-6.63,13.78-10.64,20.05-3.12,4.88-6.82,9.36-11.26,13.16-4,3.42-7.98,6.86-11.95,10.3-1.88,1.63-4.05,2.74-6.39,3.51-3.99,1.32-7.97,2.65-12,3.86-2.08.62-4.24.96-6.36,1.45-.67.16-1.4.27-1.96.63-.88.55-1.77.59-2.74.56-1.75-.05-3.5-.03-5.25-.04-.16,0-.32.03-.48,0-7.21-.91-14.47-1.34-21.6-2.99-4.85-1.13-9.24-3.09-13.51-5.5-1.66-.94-3.36-1.85-5.09-2.66-4.11-1.94-7.78-4.58-11.51-7.13-2.77-1.89-5.62-3.6-8.64-5.1-3.81-1.89-7.47-4.07-11.2-6.12-.65-.36-1.31-.7-1.97-1.05-2.87-1.51-5.71-3.08-8.61-4.52-1.9-.94-3.89-1.71-5.85-2.52-2.06-.84-4.14-1.66-6.23-2.44-2.23-.84-4.48-1.65-6.73-2.45-.75-.27-1.57-.38-2.27-.74-2.99-1.57-6.23-2.01-9.53-2.3-1.68-.15-3.34-.57-5.03-.72-2.62-.24-5.21.09-7.71.91-8.91,2.9-17.75,5.98-25.93,10.65-8.2,4.68-15.89,10.07-23.22,16.01-5.54,4.49-11.14,8.89-17.13,12.76-4.05,2.61-8.28,4.84-13.06,5.77-1.77.35-3.58.51-5.37.71-3.06.34-6.13.68-9.2.96-3.3.29-6.57,0-9.83-.6-3.55-.66-7.13-1.16-10.7-1.71-2.54-.39-4.98-1.11-7.33-2.15-4.28-1.89-8.55-3.8-12.42-6.51-1.43-1-3.06-1.71-4.63-2.49-3.37-1.66-6.35-3.86-9.12-6.38-.35-.32-.7-.66-1.01-1.01-2.73-3.04-5.51-6.05-8.15-9.16-1.37-1.61-2.48-3.45-3.72-5.17-1.08-1.5-2.18-3-3.28-4.49-.82-1.11-1.69-2.19-2.5-3.31-3.03-4.17-6.04-8.35-9.07-12.52-.75-1.03-1.46-2.11-2.32-3.04-3.44-3.75-6.64-7.72-10.33-11.24-.42-.4-.9-.76-1.3-1.17-3.05-3.13-6.71-5.34-10.63-7.19-2.11-1-4.15-2.16-6.2-3.28-2.25-1.23-4.5-2.4-7.08-2.8-.94-.15-1.86-.45-2.77-.73-2.4-.75-4.85-1.15-7.36-1.26-4.67-.21-9.34-.51-14.01-.7-1.16-.05-2.33.14-3.49.28-2.32.29-4.65.54-6.95.96-2.51.46-4.98,1.1-7.47,1.66-1.55.35-3.11.68-4.66,1.04-.72.17-1.45.35-2.15.59-4.28,1.47-8.61,2.8-12.8,4.48-3.75,1.49-7.35,3.35-11,5.08-2.5,1.19-5,2.38-7.43,3.69-2.19,1.18-4.35,2.46-6.43,3.83-2.04,1.34-3.98,2.85-5.94,4.31-.64.47-1.21.78-2.01.28-.84-.53-1.7-1.06-1.54-2.19.18-1.2.45-2.41.84-3.55.8-2.36,2.29-4.3,3.98-6.1,1.45-1.55,2.88-3.13,4.36-4.65.96-.99,2.06-1.84,3.01-2.83,2.36-2.44,4.91-4.68,7.52-6.86.85-.71,1.58-1.58,2.33-2.4,2.32-2.51,4.86-4.74,7.78-6.55.49-.3.95-.69,1.36-1.1,2.76-2.76,5.86-5.08,9.08-7.24,1.28-.86,2.61-1.64,3.97-2.35,2.04-1.07,3.85-2.43,5.57-3.96,1.1-.98,2.3-1.91,3.6-2.6,3.61-1.92,7.29-3.7,10.95-5.53,1.57-.78,3.16-1.53,4.73-2.32,3.97-2.01,8.15-3.36,12.54-4.1,6.99-1.18,13.99-1.99,21.1-1.79,9.22.26,18,2.25,26.4,6.04,4.08,1.84,8.11,3.75,11.61,6.6,3.63,2.96,6.89,6.24,9.9,9.88,3.85,4.67,7.21,9.74,11.52,14.04,1.38,1.38,2.46,3.06,3.64,4.64,3.59,4.82,6.86,9.91,10.81,14.41,4.99,5.69,10.01,11.47,16.77,15.27,4.11,2.31,8.52,3.85,13.14,4.76,5.98,1.18,11.93,1.29,17.82-.53.76-.24,1.54-.43,2.28-.73,6.62-2.78,13.2-5.66,19.39-9.35,3.74-2.23,7.65-4.2,11.35-6.5,4.11-2.54,8.04-5.38,12.12-7.98,2.75-1.75,5.34-3.65,7.68-5.93,1.1-1.07,2.37-1.97,3.66-2.81,4.58-3.01,9.18-5.97,13.8-8.92,1.43-.92,2.91-1.77,4.39-2.61,5.12-2.88,10.61-4.29,16.51-4.14,3.08.08,6.17-.03,9.25,0,3.84.03,7.65.4,11.39,1.25,1.8.41,3.53,1.13,5.3,1.72.35.12.68.34,1.04.39,2.79.42,5.26,1.69,7.75,2.87,2.88,1.37,5.78,2.72,8.56,4.26,1.9,1.05,3.62,2.38,5.54,3.43,1.37.75,2.48,1.98,3.66,3.04.87.78,1.62,1.69,2.52,2.44,2.86,2.37,5.79,4.65,8.64,7.04,3.01,2.53,5.93,5.16,8.95,7.68,1.01.85,2.2,1.48,3.3,2.22,2.15,1.46,4.22,3.07,6.47,4.37,2.98,1.73,5.63,4.02,8.89,5.3,2.97,1.17,5.89,2.46,8.88,3.56,1.22.45,2.58.62,3.89.73,4.87.41,9.74.78,14.62,1.09,1.8.11,3.63.16,5.41-.03,4.73-.5,9.4-1.5,13.62-3.74,4.52-2.41,8.62-5.45,11.81-9.56.55-.71,1.11-1.43,1.69-2.12,3.02-3.61,4.83-7.85,6.42-12.22,1.79-4.92,2.85-10,3.58-15.16.59-4.24.42-8.48-.26-12.71-.52-3.22-2.22-5.96-3.56-8.84-.18-.38-.48-.72-.6-1.12-.72-2.31-2.06-4.16-3.97-5.65-1.42-1.11-2.74-2.34-4.1-3.53-3.36-2.92-7.43-3.97-11.73-4.42-3.56-.37-7.1-.28-10.66.04-2.7.24-4.93,1.59-7.25,2.76-3.1,1.57-5.33,4.01-6.87,7.09-.66,1.33-1.23,2.72-1.94,4.02-1.09,2.02-1.26,4.24-.96,6.37.46,3.32,1.3,6.6,3.52,9.28.4.48.84.99,1.37,1.29,1.62.91,3.28,1.76,4.95,2.58,2.29,1.11,4.51.87,6.69-.39,2.09-1.21,3.72-2.77,4.51-5.15.45-1.37.04-3.28-1.1-4.18-.59-.46-1.23-.84-1.8-1.31-1.01-.83-1.61-1.85-1.26-3.21.34-1.33,1.26-2.06,2.57-2.31.52-.1,1.05-.17,1.58-.19,2.71-.08,7.31,2.12,8.94,4.29,1.3,1.74,2.82,3.38,3.79,5.3,2.59,5.17,3.21,10.53.72,15.97-.95,2.08-1.81,4.21-2.88,6.23-1.85,3.5-4.54,6.22-7.97,8.25-7.91,4.68-16.36,5.11-25.14,3.44-6.06-1.15-11.32-3.89-16.05-7.76-1.15-.94-2.31-1.87-3.46-2.82-3.01-2.48-5.29-5.51-6.82-9.1-.31-.73-.65-1.46-1.03-2.16-4.66-8.35-5.72-17.32-4.89-26.71.54-6.06,2.39-11.63,5.24-16.94,1.38-2.58,2.64-5.22,4.03-7.8.76-1.4,1.53-2.84,2.55-4.03,3.45-4,7.14-7.86,11.93-10.18,4.63-2.24,9.51-3.97,14.34-5.78,1.47-.55,3.11-.75,4.69-.88,5.94-.46,11.9-.5,17.84-.04,1.53.12,3.03.52,4.55.75,1.41.21,2.83.44,4.26.51,1.51.07,2.95.3,4.32.97,5.16,2.52,10.35,4.98,15.49,7.53,5.29,2.62,9.86,6.25,14.05,10.37.53.52,1.04,1.07,1.46,1.68,3.76,5.41,7.65,10.74,10.62,16.66,3.73,7.44,6.54,15.13,6.32,23.64-.02.9.03,1.82.17,2.7.74,4.46.44,8.9-.17,13.34-.07.47-.18.95-.2,1.42-.23,6.92-2.68,13.3-4.83,19.73-.97,2.91-2.51,5.63-3.63,8.09Z"/>
  </g>
  <g>
    <path class="cls-1" d="M6301.65,96.21c-4.77,3.83-9.64,7.54-14.28,11.53-4.3,3.69-7.44,8.42-10.66,13.04-1.17,1.67-2.3,3.38-3.31,5.15-4.24,7.46-9.7,14.18-13.29,22.03-.94,2.05-1.81,4.13-2.82,6.14-.75,1.5-1.54,3.01-2.55,4.35-1.12,1.48-2.74,1.81-4.13,1.17-1.38-.63-2.04-2.03-1.79-3.91.25-1.88.61-3.75.82-5.64.21-1.88.29-3.78.41-5.67.09-1.47.01-2.97.25-4.42.71-4.38,1.57-8.73,2.3-13.11.34-2.08.63-4.18.72-6.28.16-3.6.73-7.11,1.57-10.62,1.02-4.23,1.55-8.59,2.57-12.83,1.4-5.82,2.92-11.62,5.9-16.9,1.17-2.08,2.46-4.09,3.71-6.13,2.72-4.44,5.43-8.89,8.16-13.32,4.82-7.82,11.58-13.57,19.58-17.85,3.96-2.12,8.02-4.19,12.24-5.69,7.28-2.58,14.82-3.93,22.61-3.11,2.24.24,4.49.38,6.73.58.56.05,1.13.09,1.67.23,4.14,1.08,8.38,1.78,12.33,3.62,3.5,1.64,7.23,2.81,10.68,4.53,3,1.5,5.93,3.26,8.6,5.29,2.61,1.99,4.93,4.39,7.25,6.74,2.12,2.14,4.15,4.39,6.08,6.7,3.15,3.76,5.25,8.16,7.25,12.59,1.79,3.97,3.45,8.01,5.15,12.02,2.21,5.22,3.45,10.71,4.43,16.26,1.18,6.65,2.26,13.31,3.34,19.98.21,1.31.27,2.66.34,3.99.17,2.95.28,5.9.46,8.84.31,4.85.41,9.66-.21,14.53-.67,5.23-.68,10.54-1.25,15.78-.41,3.77-1.17,7.51-1.97,11.22-.3,1.41-1.01,2.79-1.76,4.04-.44.73-1.26,1.33-2.04,1.72-1.39.69-2.7.19-3.31-1.26-.43-1.02-.67-2.14-.87-3.24-.64-3.45-1.21-6.92-1.82-10.38-.81-4.57-1.86-9.08-3.22-13.53-.82-2.69-1.44-5.44-3.1-7.8-.44-.62-.73-1.38-.94-2.11-.82-2.91-2.42-5.36-4.28-7.69-2.38-2.97-4.56-6.07-5.95-9.67-.45-1.16-1.25-2.2-1.99-3.23-2.39-3.3-4.82-6.58-7.25-9.85-4.25-5.7-9.28-10.54-15.54-14.02-2.34-1.3-4.72-2.54-6.95-4-3.55-2.33-7.55-3.62-11.58-4.44-9.92-2.01-19.51-1.19-28.1,5.01-.07-.13-.14-.26-.21-.39Z"/>
    <path class="cls-1" d="M6278.08,172.41c-4.65,3.4-9.65,7.05-14.64,10.71-.34.25-.65.54-.94.85-.84.89-1.77,1.39-3,.8-1.19-.58-1.84-1.54-1.86-2.84,0-.76.2-1.53.35-2.28.26-1.31.71-2.6.8-3.92.37-5.09,2.02-9.75,4.43-14.2,2.18-4.02,4.22-8.12,6.4-12.14,3.37-6.21,7.48-11.88,12.16-17.19,3.69-4.18,7.92-7.55,12.83-10.16,2.73-1.45,5.67-2.07,8.59-2.82,8.2-2.1,16.39-1.85,24.36.85,5.11,1.73,10.15,3.79,14.64,6.96,1.43,1.01,3.04,1.77,4.54,2.68.65.4,1.33.81,1.84,1.37,4.94,5.4,9.85,10.82,14.75,16.26.56.62,1.05,1.33,1.5,2.04,3.9,6.19,7.85,12.36,11.64,18.62,1.12,1.85,1.71,4.01,2.67,5.96,1.05,2.15,2.26,4.22,3.33,6.36.57,1.13,1.12,2.29,1.43,3.5.21.84.17,1.84-.08,2.68-.7,2.34-3.86,3.14-5.48,1.58-2.02-1.95-4.17-3.78-6.38-5.53-5.46-4.32-10.81-8.81-16.53-12.77-6.86-4.75-14.26-8.45-22.72-9.69-5.09-.75-10.13-1.84-15.31-1.34-7.88.76-15.55,2.51-23.01,5.15-1.25.44-2.44,1.09-3.62,1.72-4.1,2.17-8.19,4.37-12.68,6.78Z"/>
  </g>
  <g>
    <path class="cls-2" d="M4924.84,187.87c-.11-.35-.35-.71-.32-1.04.41-4.33.84-8.65,1.32-12.97.22-2.01.59-4,.85-6.01.88-6.69,1.64-13.4,2.64-20.07.92-6.12,3.12-11.89,5.5-17.56.71-1.7,1.8-3.33,3.06-4.68,4.98-5.37,11.04-9.09,18.31-10.25,3.66-.58,7.51-.52,11.21-.13,2.38.25,4.75,1.38,6.92,2.52,3.39,1.78,6.47,4.04,9.14,6.87,2.06,2.18,4.35,4.14,6.43,6.3,1.71,1.78,3.36,3.63,4.88,5.58,4.17,5.31,8.26,10.69,12.38,16.04,4.68,6.06,10.39,11.01,16.58,15.45,3.84,2.75,7.52,5.74,11.86,7.73.68.31,1.36.64,2.03.96,3.36,1.61,6.84,2.58,10.64,2.28,2.24-.18,4.5-.06,6.75-.03,2.24.03,4.36-.42,6.19-1.7,3.13-2.19,6.38-4.27,9.23-6.8,5.66-5.03,11.15-10.27,16.58-15.55,3.19-3.1,5.57-6.87,7.8-10.71,3.43-5.9,6.9-11.78,10.17-17.78,4.3-7.9,8.32-15.96,12.64-23.86,5.6-10.24,11.96-19.97,20.34-28.2,5.67-5.57,11.4-11.1,17.36-16.35,3.13-2.76,6.79-4.92,10.26-7.28,2.91-1.99,5.97-3.76,8.81-5.84,6.68-4.88,14.11-8.08,22.23-9.23,6.68-.95,13.47-1.01,20.07,1.08,6.63,2.1,12.82,5.03,18.24,9.51,3.17,2.63,6.63,4.91,9.91,7.41,6.92,5.29,11.92,12.2,16.32,19.6.69,1.16,1.33,2.35,2.07,3.48,4.83,7.33,9.68,14.64,14.53,21.96,3.28,4.96,6.05,10.17,8.31,15.68,1.33,3.25,3.01,6.37,4.65,9.48,2.66,5.04,5.69,9.9,8.07,15.06,2.49,5.42,6.13,9.89,9.94,14.36,5.27,6.19,12.07,10.02,19.29,13.29,1.19.54,2.62.58,3.94.84,6.93,1.39,13.88,1.23,20.83.26,1.54-.22,3.06-.71,4.55-1.17,1.72-.53,3.39-1.22,5.11-1.73,5.74-1.7,10.62-4.79,14.83-9.01,1.11-1.11,2.33-2.11,3.5-3.16,1.5-1.36,3.13-2.6,4.48-4.09,6.91-7.62,13.39-15.59,19.16-24.12,3.37-4.99,7.2-9.6,11.42-13.89.95-.96,1.91-1.92,2.77-2.96,5.42-6.52,12.16-11.31,19.54-15.33,2.16-1.18,4.11-2.74,6.23-4,1.59-.95,3.28-1.76,4.97-2.53,1.02-.46,2.11-.76,3.19-1.09,1.22-.37,2.43-.79,3.68-1.01,3.09-.55,6.2-1.03,9.31-1.47,1.56-.22,3.13-.34,4.7-.36,3.83-.06,7.66,0,11.48-.06,9.43-.15,17.83,2.79,25.4,8.31,5.65,4.13,11.04,8.53,15.66,13.83,1.43,1.64,3.01,3.15,4.59,4.65,5.8,5.51,10.79,11.7,14.95,18.5,3.56,5.82,6.76,11.85,10.17,17.77,4.46,7.74,8.34,15.78,12.1,23.87,2.97,6.38,5.68,12.89,8.51,19.34h-648.25Z"/>
    <path class="cls-2" d="M4991.82,69.89c-6.09-4.14-12.86-6.53-20.04-7.86-2.1-.39-4.23-.61-6.35-.86-.53-.06-1.08-.01-1.62.05-1.5.17-2.99.35-4.48.58-5.01.77-9.95,1.81-14.62,3.91-3.52,1.58-6.66,3.72-9.66,6.12-1.53,1.22-3.04,2.46-4.37,3.9-.43.46-.85.94-1.23,1.44-1.52,2.02-3.06,4.03-4.53,6.09-.62.88-1.12,1.85-1.56,2.83-1.29,2.89-2.31,5.88-3.29,8.88-.56,1.71-1.3,3.37-1.59,5.17-.11.71-.2,1.43-.32,2.14-.14.86-.32,1.71-.46,2.57-.32,1.99-.67,3.97-.93,5.97-.17,1.32.04,2.65.3,3.95.25,1.22.88,2.24,1.81,3.06.94.83,1.99.91,3.09.32.93-.5,1.62-1.26,2.26-2.05.76-.93,1.46-1.92,2.16-2.89.76-1.05,1.5-2.11,2.25-3.16.91-1.27,1.8-2.56,2.74-3.81,1.02-1.38,2.05-2.76,3.14-4.08,1.37-1.66,3.12-2.92,4.86-4.15,1.86-1.32,3.83-2.5,5.77-3.71,2.16-1.34,4.56-2.19,6.91-3.12.69-.27,1.46-.37,2.2-.51,1.84-.34,3.67-.76,5.52-.95,2.39-.25,4.8-.31,7.21-.46,4.03-.24,7.69,1.2,11.33,2.62.89.35,1.71.87,2.57,1.32,3.54,1.83,6.92,3.92,10.17,6.21,1.57,1.11,3.06,2.34,4.57,3.54,1.95,1.56,3.9,3.13,5.8,4.75,2.43,2.07,4.66,4.35,6.8,6.72,2.54,2.81,5.17,5.55,7.65,8.41,1.18,1.36,2.11,2.92,3.13,4.41.68.99,1.3,2.01,2.24,2.81.49.41.95.62,1.55.45.62-.18.95-.65,1.01-1.26.09-.9.15-1.8.17-2.7.02-1.11.04-2.23-.04-3.34-.3-4.19-.98-8.31-2.54-12.25-.33-.84-.65-1.69-.88-2.56-1.1-4.24-2.99-8.13-5.11-11.93-.19-.34-.41-.67-.58-1.02-2.42-4.93-5.78-9.22-9.3-13.38-1.57-1.86-3.26-3.63-4.99-5.34-1.17-1.16-2.56-2.11-3.75-3.25-1.5-1.43-3.29-2.43-4.98-3.57Z"/>
  </g>
  <path class="cls-1" d="M4773.96,177.82c-1.43,0-2.85.05-4.28-.01-1.49-.06-3.07.03-4.46-.41-1.91-.61-3.8-.79-5.76-.72-8.62.32-16.8-1.93-24.88-4.51-4.13-1.32-7.66-3.81-10.85-6.7-6.93-6.29-12.3-13.76-16.07-22.31-2.26-5.14-4.36-10.37-5.3-15.98-1.1-6.62-1.52-13.27-1.1-19.96.09-1.42.31-2.84.65-4.22.96-3.86,1.71-7.81,3.13-11.49,1.63-4.25,3.78-8.32,5.92-12.36,1.4-2.64,3.23-5.06,4.8-7.61,2.27-3.7,5.29-6.7,8.61-9.43,1.8-1.48,3.62-2.93,5.35-4.49,4.37-3.92,9.58-6.43,14.84-8.82,1.74-.79,3.75-1.01,5.66-1.39,3.38-.67,6.76-1.45,10.18-1.85,6.8-.78,13.6-.9,20.4.27,7.35,1.27,14.37,3.58,21.22,6.49,3.27,1.39,6.11,3.46,8.98,5.52,6.22,4.46,10.63,10.53,15.19,16.49,2.29,2.99,3.31,6.54,4.28,10.09,1.38,5.06,2.7,10.14,4.07,15.2,1.2,4.42,1.11,8.95.81,13.43-.37,5.53-.93,11.06-1.73,16.54-.66,4.55-2.28,8.86-4.56,12.86-2,3.52-4.03,7.03-6.29,10.38-4.69,6.95-10.83,12.4-18,16.72-2.9,1.75-6.04,2.96-9.08,4.41-6.96,3.31-14.29,3.71-21.74,3.88Z"/>
  <g>
    <path class="cls-4" d="M4391.18,23.23c3.62,0,6.04.06,8.46-.01,3.65-.1,7.24.32,10.85.76,3.26.4,6.53.72,9.8.9,7.83.44,15.38,2.16,22.75,4.74,1.83.64,3.61,1.56,5.24,2.62,6.15,4.01,11.88,8.52,16.48,14.35,5.82,7.37,10.14,15.48,12.48,24.62.78,3.06,1.75,6.08,2.73,9.09,1.11,3.4,2.24,6.78,2.57,10.37.02.17.04.34.08.51,2.03,7.69,2.83,15.62,4.52,23.38.2.9.44,1.79.73,2.66,1.26,3.71,2.53,7.41,3.82,11.1.3.87.65,1.73,1.08,2.54,2.52,4.79,5.05,9.58,7.6,14.35,1.26,2.35,2.86,4.44,4.91,6.2,5.3,4.53,10.16,9.56,15.83,13.65,3.66,2.65,7.61,4.71,11.84,6.33,5.6,2.15,11.34,3.82,17.06,5.59,2.24.69,4.61.99,6.92,1.47,4.84,1.01,9.68,2.07,14.53,3.04,1.86.37,3.75.73,5.64.78,3.7.09,7.35.51,10.98,1.19,1.98.37,3.98.64,5.97.97.62.1,1.25.22,1.86.39,1.52.41,2.37,1.31,2.44,2.56.07,1.32-.71,2.37-2.31,2.84-2.2.64-4.45,1.15-6.65,1.78-1.71.49-3.39,1.1-5.1,1.61-7.88,2.36-15.76,4.67-23.98,5.73-7.62.98-15.24,1.53-22.91,1.71-2.07.05-4.14.17-6.22.25-5.9.23-11.73-.31-17.54-1.33-6.98-1.23-13.86-2.88-20.6-5.09-8.29-2.73-15.76-7.04-22.83-12.06-5.97-4.24-10.78-9.55-13.93-16.22-1.32-2.8-2.39-5.73-3.59-8.59-.69-1.64-1.42-3.27-2.13-4.91-1.07-2.46-1.45-5.08-1.73-7.72-.39-3.72-.73-7.45-1.25-11.16-.81-5.87-1.85-11.71-3.46-17.43-.51-1.83-.8-3.72-1.29-5.55-.62-2.33-1.3-4.65-2.03-6.95-.89-2.8-1.91-5.55-2.76-8.36-.64-2.11-1.5-4.1-2.63-5.99-1.8-3.02-3.48-6.1-5.33-9.09-1.12-1.81-2.36-3.56-3.73-5.18-4.09-4.84-8.09-9.78-12.46-14.36-4.61-4.83-9.51-9.39-15.25-12.94-2.4-1.48-4.57-3.32-6.92-4.88-1.03-.69-2.25-1.1-3.4-1.6-.63-.27-1.38-.34-1.94-.7-3.11-2.02-6.76-2.89-9.99-4.66-.74-.41-1.61-.6-2.44-.81-1.4-.34-2.82-.59-4.21-.93-2.4-.58-4.79-1.21-7.19-1.82-.11-.03-.23-.04-.34-.07-1.94-.47-2.92-1.4-3-2.86-.09-1.45.71-2.68,2.55-3.29,2.18-.72,4.42-1.3,6.67-1.73,4.76-.9,9.58-1.32,14.43-1.48,3.17-.1,6.33-.24,8.31-.32Z"/>
    <path class="cls-4" d="M4563.02,171.33c-1.48.87-2.69.71-3.95.36-3.9-1.07-7.66-2.47-11.15-4.57-.88-.53-1.87-.89-2.84-1.24-4.41-1.58-8.05-4.45-11.87-7-3.78-2.53-7.44-5.23-11.12-7.91-4-2.91-7.29-6.52-10.15-10.53-2-2.82-4.02-5.62-5.95-8.49-2.06-3.06-4.04-6.15-5.25-9.69-.71-2.07-1.55-4.09-2.46-6.08-1.5-3.31-2.04-6.82-2.43-10.37-.04-.4-.03-.81-.09-1.2-.5-3.06-1.01-6.13-1.51-9.19-.08-.51-.14-1.04-.09-1.55.25-2.51.14-5.05.84-7.53.31-1.09.23-2.28.38-3.42.2-1.53.37-3.08.72-4.59.67-2.92,1.48-5.8,2.17-8.71.38-1.59.99-3.04,1.83-4.45,1.29-2.18,2.42-4.45,3.65-6.66.45-.8.88-1.65,1.5-2.31,4.68-4.95,9.57-9.66,15.56-13.06,2.45-1.39,4.78-3,7.22-4.42,1.39-.81,2.83-1.57,4.32-2.15,4.51-1.74,9.01-3.51,13.6-5.02,5.69-1.88,11.56-3.07,17.44-4.25,5.53-1.11,11.07-2.14,16.54-3.56,5.17-1.35,10.51-1.97,15.91-1.97,6.62,0,13.25-.18,19.87-.27.52,0,1.04-.02,1.56.03,1.38.13,2.35.93,2.63,2.12.26,1.09-.23,2.21-1.33,2.96-.43.29-.9.51-1.37.73-3.66,1.69-7.39,3.24-10.96,5.1-3.62,1.89-7.08,4.08-10.6,6.16-.99.59-1.88,1.38-2.93,1.83-3.49,1.48-6.47,3.74-9.5,5.93-3.92,2.84-7.93,5.54-11.78,8.47-4.53,3.45-9.06,6.93-12.83,11.28-.41.48-.83.97-1.32,1.37-2.54,2.14-4.32,4.9-6.27,7.53-1,1.34-1.95,2.73-3.08,3.95-3.34,3.62-5.68,7.86-7.22,12.45-1.81,5.4-3.18,10.96-3.68,16.66-.29,3.27-.3,6.56-.46,9.83-.24,4.62.68,9.06,2.12,13.4,1.56,4.7,3.24,9.35,4.91,14.01.27.75.65,1.48,1.09,2.15,2.49,3.87,4.95,7.77,7.55,11.57,2.49,3.62,5.41,6.88,8.55,9.95.73.71,1.4,1.49,2.24,2.38Z"/>
  </g>
  <g>
    <path class="cls-4" d="M5728.78,205.38c-.78,0-1.57.03-2.35,0-.82-.03-1.68.02-2.45-.23-1.05-.33-2.09-.43-3.16-.39-4.74.18-9.23-1.06-13.67-2.48-2.27-.72-4.21-2.09-5.96-3.68-3.81-3.46-6.76-7.56-8.83-12.26-1.24-2.82-2.4-5.7-2.91-8.78-.61-3.64-.84-7.29-.6-10.97.05-.78.17-1.56.36-2.32.53-2.12.94-4.29,1.72-6.31.9-2.34,2.08-4.57,3.25-6.79.77-1.45,1.78-2.78,2.64-4.18,1.25-2.03,2.9-3.68,4.73-5.18.99-.81,1.99-1.61,2.94-2.46,2.4-2.15,5.26-3.53,8.15-4.85.96-.43,2.06-.56,3.11-.76,1.86-.37,3.71-.8,5.59-1.01,3.73-.43,7.47-.5,11.21.15,4.04.7,7.9,1.96,11.66,3.57,1.8.77,3.35,1.9,4.94,3.03,3.42,2.45,5.84,5.79,8.34,9.06,1.26,1.64,1.82,3.59,2.35,5.54.76,2.78,1.48,5.57,2.23,8.35.66,2.43.61,4.91.45,7.38-.2,3.04-.51,6.07-.95,9.09-.36,2.5-1.25,4.87-2.5,7.07-1.1,1.93-2.21,3.86-3.45,5.7-2.58,3.82-5.95,6.81-9.89,9.18-1.59.96-3.32,1.63-4.99,2.42-3.82,1.82-7.85,2.04-11.94,2.13Z"/>
    <path class="cls-4" d="M6158.33,125.12c-3.02,7.25-6.63,13.78-10.64,20.05-3.12,4.88-6.82,9.36-11.26,13.16-4,3.42-7.98,6.86-11.95,10.3-1.88,1.63-4.05,2.74-6.39,3.51-3.99,1.32-7.97,2.65-12,3.86-2.08.62-4.24.96-6.36,1.45-.67.16-1.4.27-1.96.63-.88.55-1.77.59-2.74.56-1.75-.05-3.5-.03-5.25-.04-.16,0-.32.03-.48,0-7.21-.91-14.47-1.34-21.6-2.99-4.85-1.13-9.24-3.09-13.51-5.5-1.66-.94-3.36-1.85-5.09-2.66-4.11-1.94-7.78-4.58-11.51-7.13-2.77-1.89-5.62-3.6-8.64-5.1-3.81-1.89-7.47-4.07-11.2-6.12-.65-.36-1.31-.7-1.97-1.05-2.87-1.51-5.71-3.08-8.61-4.52-1.9-.94-3.89-1.71-5.85-2.52-2.06-.84-4.14-1.66-6.23-2.44-2.23-.84-4.48-1.65-6.73-2.45-.75-.27-1.57-.38-2.27-.74-2.99-1.57-6.23-2.01-9.53-2.3-1.68-.15-3.34-.57-5.03-.72-2.62-.24-5.21.09-7.71.91-8.91,2.9-17.75,5.98-25.93,10.65-8.2,4.68-15.89,10.07-23.22,16.01-5.54,4.49-11.14,8.89-17.13,12.76-4.05,2.61-8.28,4.84-13.06,5.77-1.77.35-3.58.51-5.37.71-3.06.34-6.13.68-9.2.96-3.3.29-6.57,0-9.83-.6-3.55-.66-7.13-1.16-10.7-1.71-2.54-.39-4.98-1.11-7.33-2.15-4.28-1.89-8.55-3.8-12.42-6.51-1.43-1-3.06-1.71-4.63-2.49-3.37-1.66-6.35-3.86-9.12-6.38-.35-.32-.7-.66-1.01-1.01-2.73-3.04-5.51-6.05-8.15-9.16-1.37-1.61-2.48-3.45-3.72-5.17-1.08-1.5-2.18-3-3.28-4.49-.82-1.11-1.69-2.19-2.5-3.31-3.03-4.17-6.04-8.35-9.07-12.52-.75-1.03-1.46-2.11-2.32-3.04-3.44-3.75-6.64-7.72-10.33-11.24-.42-.4-.9-.76-1.3-1.17-3.05-3.13-6.71-5.34-10.63-7.19-2.11-1-4.15-2.16-6.2-3.28-2.25-1.23-4.5-2.4-7.08-2.8-.94-.15-1.86-.45-2.77-.73-2.4-.75-4.85-1.15-7.36-1.26-4.67-.21-9.34-.51-14.01-.7-1.16-.05-2.33.14-3.49.28-2.32.29-4.65.54-6.95.96-2.51.46-4.98,1.1-7.47,1.66-1.55.35-3.11.68-4.66,1.04-.72.17-1.45.35-2.15.59-4.28,1.47-8.61,2.8-12.8,4.48-3.75,1.49-7.35,3.35-11,5.08-2.5,1.19-5,2.38-7.43,3.69-2.19,1.18-4.35,2.46-6.43,3.83-2.04,1.34-3.98,2.85-5.94,4.31-.64.47-1.21.78-2.01.28-.84-.53-1.7-1.06-1.54-2.19.18-1.2.45-2.41.84-3.55.8-2.36,2.29-4.3,3.98-6.1,1.45-1.55,2.88-3.13,4.36-4.65.96-.99,2.06-1.84,3.01-2.83,2.36-2.44,4.91-4.68,7.52-6.86.85-.71,1.58-1.58,2.33-2.4,2.32-2.51,4.86-4.74,7.78-6.55.49-.3.95-.69,1.36-1.1,2.76-2.76,5.86-5.08,9.08-7.24,1.28-.86,2.61-1.64,3.97-2.35,2.04-1.07,3.85-2.43,5.57-3.96,1.1-.98,2.3-1.91,3.6-2.6,3.61-1.92,7.29-3.7,10.95-5.53,1.57-.78,3.16-1.53,4.73-2.32,3.97-2.01,8.15-3.36,12.54-4.1,6.99-1.18,13.99-1.99,21.1-1.79,9.22.26,18,2.25,26.4,6.04,4.08,1.84,8.11,3.75,11.61,6.6,3.63,2.96,6.89,6.24,9.9,9.88,3.85,4.67,7.21,9.74,11.52,14.04,1.38,1.38,2.46,3.06,3.64,4.64,3.59,4.82,6.86,9.91,10.81,14.41,4.99,5.69,10.01,11.47,16.77,15.27,4.11,2.31,8.52,3.85,13.14,4.76,5.98,1.18,11.93,1.29,17.82-.53.76-.24,1.54-.43,2.28-.73,6.62-2.78,13.2-5.66,19.39-9.35,3.74-2.23,7.65-4.2,11.35-6.5,4.11-2.54,8.04-5.38,12.12-7.98,2.75-1.75,5.34-3.65,7.68-5.93,1.1-1.07,2.37-1.97,3.66-2.81,4.58-3.01,9.18-5.97,13.8-8.92,1.43-.92,2.91-1.77,4.39-2.61,5.12-2.88,10.61-4.29,16.51-4.14,3.08.08,6.17-.03,9.25,0,3.84.03,7.65.4,11.39,1.25,1.8.41,3.53,1.13,5.3,1.72.35.12.68.34,1.04.39,2.79.42,5.26,1.69,7.75,2.87,2.88,1.37,5.78,2.72,8.56,4.26,1.9,1.05,3.62,2.38,5.54,3.43,1.37.75,2.48,1.98,3.66,3.04.87.78,1.62,1.69,2.52,2.44,2.86,2.37,5.79,4.65,8.64,7.04,3.01,2.53,5.93,5.16,8.95,7.68,1.01.85,2.2,1.48,3.3,2.22,2.15,1.46,4.22,3.07,6.47,4.37,2.98,1.73,5.63,4.02,8.89,5.3,2.97,1.17,5.89,2.46,8.88,3.56,1.22.45,2.58.62,3.89.73,4.87.41,9.74.78,14.62,1.09,1.8.11,3.63.16,5.41-.03,4.73-.5,9.4-1.5,13.62-3.74,4.52-2.41,8.62-5.45,11.81-9.56.55-.71,1.11-1.43,1.69-2.12,3.02-3.61,4.83-7.85,6.42-12.22,1.79-4.92,2.85-10,3.58-15.16.59-4.24.42-8.48-.26-12.71-.52-3.22-2.22-5.96-3.56-8.84-.18-.38-.48-.72-.6-1.12-.72-2.31-2.06-4.16-3.97-5.65-1.42-1.11-2.74-2.34-4.1-3.53-3.36-2.92-7.43-3.97-11.73-4.42-3.56-.37-7.1-.28-10.66.04-2.7.24-4.93,1.59-7.25,2.76-3.1,1.57-5.33,4.01-6.87,7.09-.66,1.33-1.23,2.72-1.94,4.02-1.09,2.02-1.26,4.24-.96,6.37.46,3.32,1.3,6.6,3.52,9.28.4.48.84.99,1.37,1.29,1.62.91,3.28,1.76,4.95,2.58,2.29,1.11,4.51.87,6.69-.39,2.09-1.21,3.72-2.77,4.51-5.15.45-1.37.04-3.28-1.1-4.18-.59-.46-1.23-.84-1.8-1.31-1.01-.83-1.61-1.85-1.26-3.21.34-1.33,1.26-2.06,2.57-2.31.52-.1,1.05-.17,1.58-.19,2.71-.08,7.31,2.12,8.94,4.29,1.3,1.74,2.82,3.38,3.79,5.3,2.59,5.17,3.21,10.53.72,15.97-.95,2.08-1.81,4.21-2.88,6.23-1.85,3.5-4.54,6.22-7.97,8.25-7.91,4.68-16.36,5.11-25.14,3.44-6.06-1.15-11.32-3.89-16.05-7.76-1.15-.94-2.31-1.87-3.46-2.82-3.01-2.48-5.29-5.51-6.82-9.1-.31-.73-.65-1.46-1.03-2.16-4.66-8.35-5.72-17.32-4.89-26.71.54-6.06,2.39-11.63,5.24-16.94,1.38-2.58,2.64-5.22,4.03-7.8.76-1.4,1.53-2.84,2.55-4.03,3.45-4,7.14-7.86,11.93-10.18,4.63-2.24,9.51-3.97,14.34-5.78,1.47-.55,3.11-.75,4.69-.88,5.94-.46,11.9-.5,17.84-.04,1.53.12,3.03.52,4.55.75,1.41.21,2.83.44,4.26.51,1.51.07,2.95.3,4.32.97,5.16,2.52,10.35,4.98,15.49,7.53,5.29,2.62,9.86,6.25,14.05,10.37.53.52,1.04,1.07,1.46,1.68,3.76,5.41,7.65,10.74,10.62,16.66,3.73,7.44,6.54,15.13,6.32,23.64-.02.9.03,1.82.17,2.7.74,4.46.44,8.9-.17,13.34-.07.47-.18.95-.2,1.42-.23,6.92-2.68,13.3-4.83,19.73-.97,2.91-2.51,5.63-3.63,8.09Z"/>
  </g>
  <g>
    <path class="cls-4" d="M8427.85,96.21c-4.77,3.83-9.64,7.54-14.28,11.53-4.3,3.69-7.44,8.42-10.66,13.04-1.17,1.67-2.3,3.38-3.31,5.15-4.24,7.46-9.7,14.18-13.29,22.03-.94,2.05-1.81,4.13-2.82,6.14-.75,1.5-1.54,3.01-2.55,4.35-1.12,1.48-2.74,1.81-4.13,1.17-1.38-.63-2.04-2.03-1.79-3.91.25-1.88.61-3.75.82-5.64.21-1.88.29-3.78.41-5.67.09-1.47.01-2.97.25-4.42.71-4.38,1.57-8.73,2.3-13.11.34-2.08.63-4.18.72-6.28.16-3.6.73-7.11,1.57-10.62,1.02-4.23,1.55-8.59,2.57-12.83,1.4-5.82,2.92-11.62,5.9-16.9,1.17-2.08,2.46-4.09,3.71-6.13,2.72-4.44,5.43-8.89,8.16-13.32,4.82-7.82,11.58-13.57,19.58-17.85,3.96-2.12,8.02-4.19,12.24-5.69,7.28-2.58,14.82-3.93,22.61-3.11,2.24.24,4.49.38,6.73.58.56.05,1.13.09,1.67.23,4.14,1.08,8.38,1.78,12.33,3.62,3.5,1.64,7.23,2.81,10.68,4.53,3,1.5,5.93,3.26,8.6,5.29,2.61,1.99,4.93,4.39,7.25,6.74,2.12,2.14,4.15,4.39,6.08,6.7,3.15,3.76,5.25,8.16,7.25,12.59,1.79,3.97,3.45,8.01,5.15,12.02,2.21,5.22,3.45,10.71,4.43,16.26,1.18,6.65,2.26,13.31,3.34,19.98.21,1.31.27,2.66.34,3.99.17,2.95.28,5.9.46,8.84.31,4.85.41,9.66-.21,14.53-.67,5.23-.68,10.54-1.25,15.78-.41,3.77-1.17,7.51-1.97,11.22-.3,1.41-1.01,2.79-1.76,4.04-.44.73-1.26,1.33-2.04,1.72-1.39.69-2.7.19-3.31-1.26-.43-1.02-.67-2.14-.87-3.24-.64-3.45-1.21-6.92-1.82-10.38-.81-4.57-1.86-9.08-3.22-13.53-.82-2.69-1.44-5.44-3.1-7.8-.44-.62-.73-1.38-.94-2.11-.82-2.91-2.42-5.36-4.28-7.69-2.38-2.97-4.56-6.07-5.95-9.67-.45-1.16-1.25-2.2-1.99-3.23-2.39-3.3-4.82-6.58-7.25-9.85-4.25-5.7-9.28-10.54-15.54-14.02-2.34-1.3-4.72-2.54-6.95-4-3.55-2.33-7.55-3.62-11.58-4.44-9.92-2.01-19.51-1.19-28.1,5.01-.07-.13-.14-.26-.21-.39Z"/>
    <path class="cls-4" d="M8404.28,172.41c-4.65,3.4-9.65,7.05-14.64,10.71-.34.25-.65.54-.94.85-.84.89-1.77,1.39-3,.8-1.19-.58-1.84-1.54-1.86-2.84,0-.76.2-1.53.35-2.28.26-1.31.71-2.6.8-3.92.37-5.09,2.02-9.75,4.43-14.2,2.18-4.02,4.22-8.12,6.4-12.14,3.37-6.21,7.48-11.88,12.16-17.19,3.69-4.18,7.92-7.55,12.83-10.16,2.73-1.45,5.67-2.07,8.59-2.82,8.2-2.1,16.39-1.85,24.36.85,5.11,1.73,10.15,3.79,14.64,6.96,1.43,1.01,3.04,1.77,4.54,2.68.65.4,1.33.81,1.84,1.37,4.94,5.4,9.85,10.82,14.75,16.26.56.62,1.05,1.33,1.5,2.04,3.9,6.19,7.85,12.36,11.64,18.62,1.12,1.85,1.71,4.01,2.67,5.96,1.05,2.15,2.26,4.22,3.33,6.36.57,1.13,1.12,2.29,1.43,3.5.21.84.17,1.84-.08,2.68-.7,2.34-3.86,3.14-5.48,1.58-2.02-1.95-4.17-3.78-6.38-5.53-5.46-4.32-10.81-8.81-16.53-12.77-6.86-4.75-14.26-8.45-22.72-9.69-5.09-.75-10.13-1.84-15.31-1.34-7.88.76-15.55,2.51-23.01,5.15-1.25.44-2.44,1.09-3.62,1.72-4.1,2.17-8.19,4.37-12.68,6.78Z"/>
  </g>
  <g>
    <path class="cls-3" d="M7051.04,187.87c-.11-.35-.35-.71-.32-1.04.41-4.33.84-8.65,1.32-12.97.22-2.01.59-4,.85-6.01.88-6.69,1.64-13.4,2.64-20.07.92-6.12,3.12-11.89,5.5-17.56.71-1.7,1.8-3.33,3.06-4.68,4.98-5.37,11.04-9.09,18.31-10.25,3.66-.58,7.51-.52,11.21-.13,2.38.25,4.75,1.38,6.92,2.52,3.39,1.78,6.47,4.04,9.14,6.87,2.06,2.18,4.35,4.14,6.43,6.3,1.71,1.78,3.36,3.63,4.88,5.58,4.17,5.31,8.26,10.69,12.38,16.04,4.68,6.06,10.39,11.01,16.58,15.45,3.84,2.75,7.52,5.74,11.86,7.73.68.31,1.36.64,2.03.96,3.36,1.61,6.84,2.58,10.64,2.28,2.24-.18,4.5-.06,6.75-.03,2.24.03,4.36-.42,6.19-1.7,3.13-2.19,6.38-4.27,9.23-6.8,5.66-5.03,11.15-10.27,16.58-15.55,3.19-3.1,5.57-6.87,7.8-10.71,3.43-5.9,6.9-11.78,10.17-17.78,4.3-7.9,8.32-15.96,12.64-23.86,5.6-10.24,11.96-19.97,20.34-28.2,5.67-5.57,11.4-11.1,17.36-16.35,3.13-2.76,6.79-4.92,10.26-7.28,2.91-1.99,5.97-3.76,8.81-5.84,6.68-4.88,14.11-8.08,22.23-9.23,6.68-.95,13.47-1.01,20.07,1.08,6.63,2.1,12.82,5.03,18.24,9.51,3.17,2.63,6.63,4.91,9.91,7.41,6.92,5.29,11.92,12.2,16.32,19.6.69,1.16,1.33,2.35,2.07,3.48,4.83,7.33,9.68,14.64,14.53,21.96,3.28,4.96,6.05,10.17,8.31,15.68,1.33,3.25,3.01,6.37,4.65,9.48,2.66,5.04,5.69,9.9,8.07,15.06,2.49,5.42,6.13,9.89,9.94,14.36,5.27,6.19,12.07,10.02,19.29,13.29,1.19.54,2.62.58,3.94.84,6.93,1.39,13.88,1.23,20.83.26,1.54-.22,3.06-.71,4.55-1.17,1.72-.53,3.39-1.22,5.11-1.73,5.74-1.7,10.62-4.79,14.83-9.01,1.11-1.11,2.33-2.11,3.5-3.16,1.5-1.36,3.13-2.6,4.48-4.09,6.91-7.62,13.39-15.59,19.16-24.12,3.37-4.99,7.2-9.6,11.42-13.89.95-.96,1.91-1.92,2.77-2.96,5.42-6.52,12.16-11.31,19.54-15.33,2.16-1.18,4.11-2.74,6.23-4,1.59-.95,3.28-1.76,4.97-2.53,1.02-.46,2.11-.76,3.19-1.09,1.22-.37,2.43-.79,3.68-1.01,3.09-.55,6.2-1.03,9.31-1.47,1.56-.22,3.13-.34,4.7-.36,3.83-.06,7.66,0,11.48-.06,9.43-.15,17.83,2.79,25.4,8.31,5.65,4.13,11.04,8.53,15.66,13.83,1.43,1.64,3.01,3.15,4.59,4.65,5.8,5.51,10.79,11.7,14.95,18.5,3.56,5.82,6.76,11.85,10.17,17.77,4.46,7.74,8.34,15.78,12.1,23.87,2.97,6.38,5.68,12.89,8.51,19.34h-648.25Z"/>
    <path class="cls-3" d="M7118.02,69.89c-6.09-4.14-12.86-6.53-20.04-7.86-2.1-.39-4.23-.61-6.35-.86-.53-.06-1.08-.01-1.62.05-1.5.17-2.99.35-4.48.58-5.01.77-9.95,1.81-14.62,3.91-3.52,1.58-6.66,3.72-9.66,6.12-1.53,1.22-3.04,2.46-4.37,3.9-.43.46-.85.94-1.23,1.44-1.52,2.02-3.06,4.03-4.53,6.09-.62.88-1.12,1.85-1.56,2.83-1.29,2.89-2.31,5.88-3.29,8.88-.56,1.71-1.3,3.37-1.59,5.17-.11.71-.2,1.43-.32,2.14-.14.86-.32,1.71-.46,2.57-.32,1.99-.67,3.97-.93,5.97-.17,1.32.04,2.65.3,3.95.25,1.22.88,2.24,1.81,3.06.94.83,1.99.91,3.09.32.93-.5,1.62-1.26,2.26-2.05.76-.93,1.46-1.92,2.16-2.89.76-1.05,1.5-2.11,2.25-3.16.91-1.27,1.8-2.56,2.74-3.81,1.02-1.38,2.05-2.76,3.14-4.08,1.37-1.66,3.12-2.92,4.86-4.15,1.86-1.32,3.83-2.5,5.77-3.71,2.16-1.34,4.56-2.19,6.91-3.12.69-.27,1.46-.37,2.2-.51,1.84-.34,3.67-.76,5.52-.95,2.39-.25,4.8-.31,7.21-.46,4.03-.24,7.69,1.2,11.33,2.62.89.35,1.71.87,2.57,1.32,3.54,1.83,6.92,3.92,10.17,6.21,1.57,1.11,3.06,2.34,4.57,3.54,1.95,1.56,3.9,3.13,5.8,4.75,2.43,2.07,4.66,4.35,6.8,6.72,2.54,2.81,5.17,5.55,7.65,8.41,1.18,1.36,2.11,2.92,3.13,4.41.68.99,1.3,2.01,2.24,2.81.49.41.95.62,1.55.45.62-.18.95-.65,1.01-1.26.09-.9.15-1.8.17-2.7.02-1.11.04-2.23-.04-3.34-.3-4.19-.98-8.31-2.54-12.25-.33-.84-.65-1.69-.88-2.56-1.1-4.24-2.99-8.13-5.11-11.93-.19-.34-.41-.67-.58-1.02-2.42-4.93-5.78-9.22-9.3-13.38-1.57-1.86-3.26-3.63-4.99-5.34-1.17-1.16-2.56-2.11-3.75-3.25-1.5-1.43-3.29-2.43-4.98-3.57Z"/>
  </g>
  <path class="cls-1" d="M6900.16,177.82c-1.43,0-2.85.05-4.28-.01-1.49-.06-3.07.03-4.46-.41-1.91-.61-3.8-.79-5.76-.72-8.62.32-16.8-1.93-24.88-4.51-4.13-1.32-7.66-3.81-10.85-6.7-6.93-6.29-12.3-13.76-16.07-22.31-2.26-5.14-4.36-10.37-5.3-15.98-1.1-6.62-1.52-13.27-1.1-19.96.09-1.42.31-2.84.65-4.22.96-3.86,1.71-7.81,3.13-11.49,1.63-4.25,3.78-8.32,5.92-12.36,1.4-2.64,3.23-5.06,4.8-7.61,2.27-3.7,5.29-6.7,8.61-9.43,1.8-1.48,3.62-2.93,5.35-4.49,4.37-3.92,9.58-6.43,14.84-8.82,1.74-.79,3.75-1.01,5.66-1.39,3.38-.67,6.76-1.45,10.18-1.85,6.8-.78,13.6-.9,20.4.27,7.35,1.27,14.37,3.58,21.22,6.49,3.27,1.39,6.11,3.46,8.98,5.52,6.22,4.46,10.63,10.53,15.19,16.49,2.29,2.99,3.31,6.54,4.28,10.09,1.38,5.06,2.7,10.14,4.07,15.2,1.2,4.42,1.11,8.95.81,13.43-.37,5.53-.93,11.06-1.73,16.54-.66,4.55-2.28,8.86-4.56,12.86-2,3.52-4.03,7.03-6.29,10.38-4.69,6.95-10.83,12.4-18,16.72-2.9,1.75-6.04,2.96-9.08,4.41-6.96,3.31-14.29,3.71-21.74,3.88Z"/>
  <g>
    <path class="cls-2" d="M6517.38,23.23c3.62,0,6.04.06,8.46-.01,3.65-.1,7.24.32,10.85.76,3.26.4,6.53.72,9.8.9,7.83.44,15.38,2.16,22.75,4.74,1.83.64,3.61,1.56,5.24,2.62,6.15,4.01,11.88,8.52,16.48,14.35,5.82,7.37,10.14,15.48,12.48,24.62.78,3.06,1.75,6.08,2.73,9.09,1.11,3.4,2.24,6.78,2.57,10.37.02.17.04.34.08.51,2.03,7.69,2.83,15.62,4.52,23.38.2.9.44,1.79.73,2.66,1.26,3.71,2.53,7.41,3.82,11.1.3.87.65,1.73,1.08,2.54,2.52,4.79,5.05,9.58,7.6,14.35,1.26,2.35,2.86,4.44,4.91,6.2,5.3,4.53,10.16,9.56,15.83,13.65,3.66,2.65,7.61,4.71,11.84,6.33,5.6,2.15,11.34,3.82,17.06,5.59,2.24.69,4.61.99,6.92,1.47,4.84,1.01,9.68,2.07,14.53,3.04,1.86.37,3.75.73,5.64.78,3.7.09,7.35.51,10.98,1.19,1.98.37,3.98.64,5.97.97.62.1,1.25.22,1.86.39,1.52.41,2.37,1.31,2.44,2.56.07,1.32-.71,2.37-2.31,2.84-2.2.64-4.45,1.15-6.65,1.78-1.71.49-3.39,1.1-5.1,1.61-7.88,2.36-15.76,4.67-23.98,5.73-7.62.98-15.24,1.53-22.91,1.71-2.07.05-4.14.17-6.22.25-5.9.23-11.73-.31-17.54-1.33-6.98-1.23-13.86-2.88-20.6-5.09-8.29-2.73-15.76-7.04-22.83-12.06-5.97-4.24-10.78-9.55-13.93-16.22-1.32-2.8-2.39-5.73-3.59-8.59-.69-1.64-1.42-3.27-2.13-4.91-1.07-2.46-1.45-5.08-1.73-7.72-.39-3.72-.73-7.45-1.25-11.16-.81-5.87-1.85-11.71-3.46-17.43-.51-1.83-.8-3.72-1.29-5.55-.62-2.33-1.3-4.65-2.03-6.95-.89-2.8-1.91-5.55-2.76-8.36-.64-2.11-1.5-4.1-2.63-5.99-1.8-3.02-3.48-6.1-5.33-9.09-1.12-1.81-2.36-3.56-3.73-5.18-4.09-4.84-8.09-9.78-12.46-14.36-4.61-4.83-9.51-9.39-15.25-12.94-2.4-1.48-4.57-3.32-6.92-4.88-1.03-.69-2.25-1.1-3.4-1.6-.63-.27-1.38-.34-1.94-.7-3.11-2.02-6.76-2.89-9.99-4.66-.74-.41-1.61-.6-2.44-.81-1.4-.34-2.82-.59-4.21-.93-2.4-.58-4.79-1.21-7.19-1.82-.11-.03-.23-.04-.34-.07-1.94-.47-2.92-1.4-3-2.86-.09-1.45.71-2.68,2.55-3.29,2.18-.72,4.42-1.3,6.67-1.73,4.76-.9,9.58-1.32,14.43-1.48,3.17-.1,6.33-.24,8.31-.32Z"/>
    <path class="cls-2" d="M6689.22,171.33c-1.48.87-2.69.71-3.95.36-3.9-1.07-7.66-2.47-11.15-4.57-.88-.53-1.87-.89-2.84-1.24-4.41-1.58-8.05-4.45-11.87-7-3.78-2.53-7.44-5.23-11.12-7.91-4-2.91-7.29-6.52-10.15-10.53-2-2.82-4.02-5.62-5.95-8.49-2.06-3.06-4.04-6.15-5.25-9.69-.71-2.07-1.55-4.09-2.46-6.08-1.5-3.31-2.04-6.82-2.43-10.37-.04-.4-.03-.81-.09-1.2-.5-3.06-1.01-6.13-1.51-9.19-.08-.51-.14-1.04-.09-1.55.25-2.51.14-5.05.84-7.53.31-1.09.23-2.28.38-3.42.2-1.53.37-3.08.72-4.59.67-2.92,1.48-5.8,2.17-8.71.38-1.59.99-3.04,1.83-4.45,1.29-2.18,2.42-4.45,3.65-6.66.45-.8.88-1.65,1.5-2.31,4.68-4.95,9.57-9.66,15.56-13.06,2.45-1.39,4.78-3,7.22-4.42,1.39-.81,2.83-1.57,4.32-2.15,4.51-1.74,9.01-3.51,13.6-5.02,5.69-1.88,11.56-3.07,17.44-4.25,5.53-1.11,11.07-2.14,16.54-3.56,5.17-1.35,10.51-1.97,15.91-1.97,6.62,0,13.25-.18,19.87-.27.52,0,1.04-.02,1.56.03,1.38.13,2.35.93,2.63,2.12.26,1.09-.23,2.21-1.33,2.96-.43.29-.9.51-1.37.73-3.66,1.69-7.39,3.24-10.96,5.1-3.62,1.89-7.08,4.08-10.6,6.16-.99.59-1.88,1.38-2.93,1.83-3.49,1.48-6.47,3.74-9.5,5.93-3.92,2.84-7.93,5.54-11.78,8.47-4.53,3.45-9.06,6.93-12.83,11.28-.41.48-.83.97-1.32,1.37-2.54,2.14-4.32,4.9-6.27,7.53-1,1.34-1.95,2.73-3.08,3.95-3.34,3.62-5.68,7.86-7.22,12.45-1.81,5.4-3.18,10.96-3.68,16.66-.29,3.27-.3,6.56-.46,9.83-.24,4.62.68,9.06,2.12,13.4,1.56,4.7,3.24,9.35,4.91,14.01.27.75.65,1.48,1.09,2.15,2.49,3.87,4.95,7.77,7.55,11.57,2.49,3.62,5.41,6.88,8.55,9.95.73.71,1.4,1.49,2.24,2.38Z"/>
  </g>
  <g>
    <path class="cls-1" d="M7854.98,205.38c-.78,0-1.57.03-2.35,0-.82-.03-1.68.02-2.45-.23-1.05-.33-2.09-.43-3.16-.39-4.74.18-9.23-1.06-13.67-2.48-2.27-.72-4.21-2.09-5.96-3.68-3.81-3.46-6.76-7.56-8.83-12.26-1.24-2.82-2.4-5.7-2.91-8.78-.61-3.64-.84-7.29-.6-10.97.05-.78.17-1.56.36-2.32.53-2.12.94-4.29,1.72-6.31.9-2.34,2.08-4.57,3.25-6.79.77-1.45,1.78-2.78,2.64-4.18,1.25-2.03,2.9-3.68,4.73-5.18.99-.81,1.99-1.61,2.94-2.46,2.4-2.15,5.26-3.53,8.15-4.85.96-.43,2.06-.56,3.11-.76,1.86-.37,3.71-.8,5.59-1.01,3.73-.43,7.47-.5,11.21.15,4.04.7,7.9,1.96,11.66,3.57,1.8.77,3.35,1.9,4.94,3.03,3.42,2.45,5.84,5.79,8.34,9.06,1.26,1.64,1.82,3.59,2.35,5.54.76,2.78,1.48,5.57,2.23,8.35.66,2.43.61,4.91.45,7.38-.2,3.04-.51,6.07-.95,9.09-.36,2.5-1.25,4.87-2.5,7.07-1.1,1.93-2.21,3.86-3.45,5.7-2.58,3.82-5.95,6.81-9.89,9.18-1.59.96-3.32,1.63-4.99,2.42-3.82,1.82-7.85,2.04-11.94,2.13Z"/>
    <path class="cls-1" d="M8284.53,125.12c-3.02,7.25-6.63,13.78-10.64,20.05-3.12,4.88-6.82,9.36-11.26,13.16-4,3.42-7.98,6.86-11.95,10.3-1.88,1.63-4.05,2.74-6.39,3.51-3.99,1.32-7.97,2.65-12,3.86-2.08.62-4.24.96-6.36,1.45-.67.16-1.4.27-1.96.63-.88.55-1.77.59-2.74.56-1.75-.05-3.5-.03-5.25-.04-.16,0-.32.03-.48,0-7.21-.91-14.47-1.34-21.6-2.99-4.85-1.13-9.24-3.09-13.51-5.5-1.66-.94-3.36-1.85-5.09-2.66-4.11-1.94-7.78-4.58-11.51-7.13-2.77-1.89-5.62-3.6-8.64-5.1-3.81-1.89-7.47-4.07-11.2-6.12-.65-.36-1.31-.7-1.97-1.05-2.87-1.51-5.71-3.08-8.61-4.52-1.9-.94-3.89-1.71-5.85-2.52-2.06-.84-4.14-1.66-6.23-2.44-2.23-.84-4.48-1.65-6.73-2.45-.75-.27-1.57-.38-2.27-.74-2.99-1.57-6.23-2.01-9.53-2.3-1.68-.15-3.34-.57-5.03-.72-2.62-.24-5.21.09-7.71.91-8.91,2.9-17.75,5.98-25.93,10.65-8.2,4.68-15.89,10.07-23.22,16.01-5.54,4.49-11.14,8.89-17.13,12.76-4.05,2.61-8.28,4.84-13.06,5.77-1.77.35-3.58.51-5.37.71-3.06.34-6.13.68-9.2.96-3.3.29-6.57,0-9.83-.6-3.55-.66-7.13-1.16-10.7-1.71-2.54-.39-4.98-1.11-7.33-2.15-4.28-1.89-8.55-3.8-12.42-6.51-1.43-1-3.06-1.71-4.63-2.49-3.37-1.66-6.35-3.86-9.12-6.38-.35-.32-.7-.66-1.01-1.01-2.73-3.04-5.51-6.05-8.15-9.16-1.37-1.61-2.48-3.45-3.72-5.17-1.08-1.5-2.18-3-3.28-4.49-.82-1.11-1.69-2.19-2.5-3.31-3.03-4.17-6.04-8.35-9.07-12.52-.75-1.03-1.46-2.11-2.32-3.04-3.44-3.75-6.64-7.72-10.33-11.24-.42-.4-.9-.76-1.3-1.17-3.05-3.13-6.71-5.34-10.63-7.19-2.11-1-4.15-2.16-6.2-3.28-2.25-1.23-4.5-2.4-7.08-2.8-.94-.15-1.86-.45-2.77-.73-2.4-.75-4.85-1.15-7.36-1.26-4.67-.21-9.34-.51-14.01-.7-1.16-.05-2.33.14-3.49.28-2.32.29-4.65.54-6.95.96-2.51.46-4.98,1.1-7.47,1.66-1.55.35-3.11.68-4.66,1.04-.72.17-1.45.35-2.15.59-4.28,1.47-8.61,2.8-12.8,4.48-3.75,1.49-7.35,3.35-11,5.08-2.5,1.19-5,2.38-7.43,3.69-2.19,1.18-4.35,2.46-6.43,3.83-2.04,1.34-3.98,2.85-5.94,4.31-.64.47-1.21.78-2.01.28-.84-.53-1.7-1.06-1.54-2.19.18-1.2.45-2.41.84-3.55.8-2.36,2.29-4.3,3.98-6.1,1.45-1.55,2.88-3.13,4.36-4.65.96-.99,2.06-1.84,3.01-2.83,2.36-2.44,4.91-4.68,7.52-6.86.85-.71,1.58-1.58,2.33-2.4,2.32-2.51,4.86-4.74,7.78-6.55.49-.3.95-.69,1.36-1.1,2.76-2.76,5.86-5.08,9.08-7.24,1.28-.86,2.61-1.64,3.97-2.35,2.04-1.07,3.85-2.43,5.57-3.96,1.1-.98,2.3-1.91,3.6-2.6,3.61-1.92,7.29-3.7,10.95-5.53,1.57-.78,3.16-1.53,4.73-2.32,3.97-2.01,8.15-3.36,12.54-4.1,6.99-1.18,13.99-1.99,21.1-1.79,9.22.26,18,2.25,26.4,6.04,4.08,1.84,8.11,3.75,11.61,6.6,3.63,2.96,6.89,6.24,9.9,9.88,3.85,4.67,7.21,9.74,11.52,14.04,1.38,1.38,2.46,3.06,3.64,4.64,3.59,4.82,6.86,9.91,10.81,14.41,4.99,5.69,10.01,11.47,16.77,15.27,4.11,2.31,8.52,3.85,13.14,4.76,5.98,1.18,11.93,1.29,17.82-.53.76-.24,1.54-.43,2.28-.73,6.62-2.78,13.2-5.66,19.39-9.35,3.74-2.23,7.65-4.2,11.35-6.5,4.11-2.54,8.04-5.38,12.12-7.98,2.75-1.75,5.34-3.65,7.68-5.93,1.1-1.07,2.37-1.97,3.66-2.81,4.58-3.01,9.18-5.97,13.8-8.92,1.43-.92,2.91-1.77,4.39-2.61,5.12-2.88,10.61-4.29,16.51-4.14,3.08.08,6.17-.03,9.25,0,3.84.03,7.65.4,11.39,1.25,1.8.41,3.53,1.13,5.3,1.72.35.12.68.34,1.04.39,2.79.42,5.26,1.69,7.75,2.87,2.88,1.37,5.78,2.72,8.56,4.26,1.9,1.05,3.62,2.38,5.54,3.43,1.37.75,2.48,1.98,3.66,3.04.87.78,1.62,1.69,2.52,2.44,2.86,2.37,5.79,4.65,8.64,7.04,3.01,2.53,5.93,5.16,8.95,7.68,1.01.85,2.2,1.48,3.3,2.22,2.15,1.46,4.22,3.07,6.47,4.37,2.98,1.73,5.63,4.02,8.89,5.3,2.97,1.17,5.89,2.46,8.88,3.56,1.22.45,2.58.62,3.89.73,4.87.41,9.74.78,14.62,1.09,1.8.11,3.63.16,5.41-.03,4.73-.5,9.4-1.5,13.62-3.74,4.52-2.41,8.62-5.45,11.81-9.56.55-.71,1.11-1.43,1.69-2.12,3.02-3.61,4.83-7.85,6.42-12.22,1.79-4.92,2.85-10,3.58-15.16.59-4.24.42-8.48-.26-12.71-.52-3.22-2.22-5.96-3.56-8.84-.18-.38-.48-.72-.6-1.12-.72-2.31-2.06-4.16-3.97-5.65-1.42-1.11-2.74-2.34-4.1-3.53-3.36-2.92-7.43-3.97-11.73-4.42-3.56-.37-7.1-.28-10.66.04-2.7.24-4.93,1.59-7.25,2.76-3.1,1.57-5.33,4.01-6.87,7.09-.66,1.33-1.23,2.72-1.94,4.02-1.09,2.02-1.26,4.24-.96,6.37.46,3.32,1.3,6.6,3.52,9.28.4.48.84.99,1.37,1.29,1.62.91,3.28,1.76,4.95,2.58,2.29,1.11,4.51.87,6.69-.39,2.09-1.21,3.72-2.77,4.51-5.15.45-1.37.04-3.28-1.1-4.18-.59-.46-1.23-.84-1.8-1.31-1.01-.83-1.61-1.85-1.26-3.21.34-1.33,1.26-2.06,2.57-2.31.52-.1,1.05-.17,1.58-.19,2.71-.08,7.31,2.12,8.94,4.29,1.3,1.74,2.82,3.38,3.79,5.3,2.59,5.17,3.21,10.53.72,15.97-.95,2.08-1.81,4.21-2.88,6.23-1.85,3.5-4.54,6.22-7.97,8.25-7.91,4.68-16.36,5.11-25.14,3.44-6.06-1.15-11.32-3.89-16.05-7.76-1.15-.94-2.31-1.87-3.46-2.82-3.01-2.48-5.29-5.51-6.82-9.1-.31-.73-.65-1.46-1.03-2.16-4.66-8.35-5.72-17.32-4.89-26.71.54-6.06,2.39-11.63,5.24-16.94,1.38-2.58,2.64-5.22,4.03-7.8.76-1.4,1.53-2.84,2.55-4.03,3.45-4,7.14-7.86,11.93-10.18,4.63-2.24,9.51-3.97,14.34-5.78,1.47-.55,3.11-.75,4.69-.88,5.94-.46,11.9-.5,17.84-.04,1.53.12,3.03.52,4.55.75,1.41.21,2.83.44,4.26.51,1.51.07,2.95.3,4.32.97,5.16,2.52,10.35,4.98,15.49,7.53,5.29,2.62,9.86,6.25,14.05,10.37.53.52,1.04,1.07,1.46,1.68,3.76,5.41,7.65,10.74,10.62,16.66,3.73,7.44,6.54,15.13,6.32,23.64-.02.9.03,1.82.17,2.7.74,4.46.44,8.9-.17,13.34-.07.47-.18.95-.2,1.42-.23,6.92-2.68,13.3-4.83,19.73-.97,2.91-2.51,5.63-3.63,8.09Z"/>
  </g>
</svg>