<?xml version="1.0" encoding="UTF-8"?>
<svg id="Component_7_10" data-name="Component 7 10" xmlns="http://www.w3.org/2000/svg" xmlns:xlink="http://www.w3.org/1999/xlink" version="1.1" viewBox="0 0 303.2 243.3">
  <defs>
    <style>
      .cls-1 {
        clip-path: url(#clippath);
      }

      .cls-2 {
        fill: none;
      }

      .cls-2, .cls-3, .cls-4 {
        stroke-width: 0px;
      }

      .cls-3 {
        fill: #d56c22;
      }

      .cls-4 {
        fill: #e8b450;
      }
    </style>
    <clipPath id="clippath">
      <rect class="cls-2" y="108.7" width="303.2" height="134.6"/>
    </clipPath>
  </defs>
  <circle id="Ellipse_2" data-name="Ellipse 2" class="cls-4" cx="147.2" cy="90" r="90"/>
  <g id="Group_383" data-name="Group 383">
    <g class="cls-1">
      <g id="Group_383-2" data-name="Group 383-2">
        <path id="Path_4616" data-name="Path 4616" class="cls-3" d="M219.9,225.9l-4.9,2.8c-1.7,1-3.9.4-4.8-1.3,0,0,0,0,0-.1-5.6-10.9-23.3-42.2-25.2-45.6-.5-.8-.3-1.9.5-2.4,0,0,0,0,0,0,1.1-.9,2.3-1.6,3.4-2.4.5-.4,1.2-.4,1.7,0,0,0,0,0,0,0,3.5,3,24,40.4,29.6,47.4.4.4.3,1.1-.2,1.4,0,0,0,0-.1,0"/>
        <path id="Path_4617" data-name="Path 4617" class="cls-3" d="M39,197.1c16.2-16.2,35.2-28.8,40.1-32.8.7-.6,1.7-.4,2.2.2h0c.5.6.9,1.2,1.3,1.8.3.6.3,1.3-.2,1.8-3.2,3.6-10.2,10.7-17.4,18.1-4.2,4.4-14.2,13.5-17.9,18.4-1.7,2.2-9.9-6-8.1-7.7"/>
        <path id="Path_4618" data-name="Path 4618" class="cls-3" d="M107.2,179.1c.7.2,1.4.6,1.9,1.1.3.4.3.9,0,1.2-5.4,9.2-17.9,41.7-20.8,45.9-.9,1.3-8.6-2.2-7.2-4.6,3.7-5.7,21.4-37,24.8-43,.2-.4.7-.6,1.2-.5"/>
        <path id="Path_4619" data-name="Path 4619" class="cls-3" d="M4.3,111.3c7.8,1.4,40.8.8,46.6.9.5,0,.9.2,1,.7l.7,2.6c.1.5-.3,1-1,1.1l-46.2,3.9c-.5,0-1-.2-1.2-.7-.3-1.6-1-5.2-1.3-7.5,0-.6.6-1.1,1.3-.9"/>
        <path id="Path_4620" data-name="Path 4620" class="cls-3" d="M297.3,111.8c.4,0,.8.5.7.9-.4,3,3.5,4.1,1.7,6.3-.8,1-53.1-2-56.5-2.8-.6-.2-1.1-.7-1.1-1.3-.1-.5-.1-1,0-1.5,0-.8.7-1.4,1.5-1.4,3.2.1,23.7-.3,28.5-1.1,4-.7,21,.2,25.2.8"/>
        <path id="Path_4621" data-name="Path 4621" class="cls-3" d="M10.4,166.9l-2.1-5.2c-.7-1.8.1-3.9,1.9-4.6,0,0,0,0,.1,0,11.5-4.1,44.9-17.6,48.5-18.9.9-.4,1.9,0,2.3.8,0,0,0,0,0,0,.7,1.2,1.3,2.4,1.9,3.7.4.5.2,1.3-.3,1.6,0,0,0,0,0,0-3.4,3.1-43.2,18.5-50.9,23.1-.5.3-1.1.1-1.4-.4,0,0,0,0,0-.1"/>
        <path id="Path_4622" data-name="Path 4622" class="cls-3" d="M256.3,198.1c-2.2,2.4-5.8,2.6-8.3.5-8.8-7.4-28-23.6-31.7-27.5-1.9-1.9-3.4-4.1-5.3-5.9-.4-.3-.4-.9-.1-1.3.4-.6,1.1-1.3,1.6-1.9.6-.6,1.5-.8,2.2-.2,5.4,4.1,40.9,30.2,43.3,32.2.6.5.7,1.5.2,2.1,0,0,0,0,0,0l-1.9,2h0Z"/>
        <path id="Path_4623" data-name="Path 4623" class="cls-3" d="M233,141.1c.1-.7.4-1.4.9-2,.3-.3.8-.4,1.2-.2,9.7,4.4,49.9,17.9,54.4,20.4,1.4.8-1.2,8.8-3.8,7.6-6-3-45.7-21.9-52.1-24.7-.4-.2-.7-.7-.6-1.1"/>
        <path id="Path_4624" data-name="Path 4624" class="cls-3" d="M121.9,235.4c2.7-7.4,8.9-42.8,10-48.5,0-.4.4-.8.9-.9l2.7-.2c.5,0,1,.5.9,1.2l-5.4,51.6c0,.5-.4.9-.9,1-1.6,0-5.1-2.6-7.4-2.7-.6,0-1-.8-.7-1.5"/>
        <path id="Path_4625" data-name="Path 4625" class="cls-3" d="M165.5,237.8c-1-13.7-5.3-42.3-6.7-50.8-.1-.8.4-1.5,1.1-1.6,1-.2,1.9-.4,2.8-.6s1.2,0,1.5.9c2.1,5.9,3.7,11.9,4.8,18,2.2,13.2,4.4,30.4,5,34.5.1.6-.1,1.2-.6,1.7-.4.3-.8.7-1,.9-2,1.7-6.6-.2-6.8-2.9"/>
      </g>
    </g>
  </g>
</svg>