<svg xmlns="http://www.w3.org/2000/svg" id="Layer_1" data-name="Layer 1" viewBox="129.28 56.22 945.09 387.01">
  <defs>
    <style>
      .cls-1, .cls-2 {
        fill: #fff7e0;
      }

      .cls-3 {
        fill: #afb660;
      }

      .cls-4 {
        fill: #225e4b;
      }

      .cls-5 {
        fill: #5398a6;
      }

      .cls-2 {
        font-family: Roylands-Sans, Roylands;
        font-size: 110.14px;
      }

      .cls-6 {
        fill: #14648e;
      }
    </style>
  </defs>
  <g>
    <path class="cls-4" d="M603.76,442.87c-48.6,1.6-96.1-2.52-143.85-5.07-6.75-.36-13.52-1.24-19.86-2.34-58.18-10.03-114.16-21.79-163.45-38.82-29.16-10.07-54.24-21.72-75.26-35.03-10.72-6.79-21.83-13.47-32.83-20.18-12.55-7.65-18.59-16.23-21.29-25.47-3.11-10.62-7.47-21.17-11.22-31.75-1.76-4.96-3.98-9.9-4.92-14.89-6.16-32.74,3.72-64.69,26.75-95.89,4.44-6.02,10.68-12.02,18.79-17.25,15.58-10.04,33.43-19.42,49.72-29.27,23.11-13.97,53.87-24.3,84.8-34.76,39.76-13.45,83.49-23.16,131.83-29.16,10.63-1.32,21.52-2.41,32.46-3.1,41.49-2.64,83.24-3.17,125.13-2.75,9.42.1,18.87-.74,28.32-.88,7.33-.1,14.77-.03,22.04.39,36.66,2.09,73.31,4.22,109.88,6.57,9.82.63,19.58,1.79,29,3.17,25.51,3.74,50.79,7.77,76.23,11.62,22.91,3.46,41.78,9.32,59.42,16.54,30.59,12.53,54.46,27.33,79.48,41.74,6.57,3.79,11.22,8.27,15.76,12.63,19.79,19,35.2,38.72,44.84,59.06,5.36,11.31,5.54,23.13,6.78,34.75,1.47,13.67,2.49,27.38,1.88,41.06-.3,6.76-4.52,13.49-7.28,20.21-7,17.01-19.82,33.12-41.99,47.6-18.64,12.18-37.99,24.15-57.57,36.06-8.38,5.09-20.16,8.53-33.06,11.49-11.58,2.66-22.54,5.97-32.79,9.52-25.91,8.97-53.78,15.87-86.69,19.14-21.53,2.14-42.54,5.47-63.23,8.89-14.62,2.41-29.35,3.6-44.8,3.9-34.35.67-68.68,1.49-103.01,2.25Z"/>
    <path class="cls-6" d="M861.6,99.67c2.88,0,4.82.04,6.75-.01,2.91-.08,5.78.26,8.66.61,2.6.32,5.21.58,7.82.72,6.25.35,12.27,1.72,18.15,3.78,1.46.51,2.88,1.24,4.18,2.09,4.91,3.2,9.48,6.8,13.15,11.45,4.64,5.88,8.09,12.35,9.95,19.64.63,2.44,1.4,4.85,2.18,7.25.88,2.71,1.79,5.41,2.05,8.27.01.14.03.28.07.41,1.62,6.14,2.26,12.47,3.61,18.66.16.72.35,1.43.58,2.12,1,2.96,2.02,5.91,3.05,8.86.24.69.52,1.38.86,2.03,2.01,3.82,4.03,7.64,6.07,11.45,1.01,1.88,2.28,3.55,3.91,4.94,4.23,3.62,8.11,7.62,12.63,10.89,2.92,2.11,6.07,3.75,9.45,5.05,4.47,1.71,9.05,3.05,13.61,4.46,1.79.55,3.68.79,5.52,1.17,3.86.81,7.72,1.65,11.6,2.42,1.48.3,2.99.58,4.5.62,2.95.08,5.86.41,8.76.95,1.58.29,3.17.51,4.76.77.5.08,1,.18,1.48.31,1.22.32,1.89,1.04,1.94,2.04.06,1.05-.57,1.89-1.84,2.27-1.76.51-3.55.92-5.31,1.42-1.37.39-2.71.88-4.07,1.28-6.29,1.89-12.58,3.73-19.13,4.57-6.08.78-12.16,1.22-18.28,1.36-1.65.04-3.31.13-4.96.2-4.71.19-9.36-.25-13.99-1.06-5.57-.98-11.06-2.3-16.43-4.06-6.61-2.18-12.58-5.62-18.22-9.62-4.76-3.38-8.6-7.62-11.11-12.94-1.06-2.24-1.9-4.57-2.86-6.85-.55-1.31-1.13-2.61-1.7-3.91-.86-1.96-1.16-4.05-1.38-6.16-.31-2.97-.59-5.95-.99-8.9-.65-4.69-1.48-9.34-2.76-13.91-.41-1.46-.64-2.96-1.03-4.43-.49-1.86-1.03-3.71-1.62-5.54-.71-2.23-1.52-4.43-2.21-6.67-.51-1.68-1.19-3.27-2.1-4.78-1.44-2.41-2.78-4.87-4.25-7.25-.89-1.44-1.88-2.84-2.98-4.14-3.26-3.86-6.45-7.8-9.94-11.45-3.68-3.85-7.59-7.49-12.17-10.32-1.91-1.18-3.64-2.65-5.52-3.89-.82-.55-1.8-.88-2.72-1.27-.5-.22-1.1-.27-1.55-.56-2.48-1.62-5.39-2.3-7.97-3.72-.59-.32-1.28-.48-1.95-.64-1.11-.27-2.25-.47-3.36-.74-1.92-.47-3.83-.96-5.74-1.45-.09-.02-.18-.03-.27-.05-1.55-.37-2.33-1.12-2.4-2.28-.07-1.16.56-2.14,2.04-2.62,1.74-.57,3.53-1.04,5.33-1.38,3.8-.72,7.65-1.06,11.51-1.18,2.53-.08,5.05-.19,6.63-.26Z"/>
    <path class="cls-6" d="M231.53,298.67c-1.48.87-2.69.71-3.95.36-3.9-1.07-7.66-2.47-11.15-4.57-.88-.53-1.87-.89-2.84-1.24-4.41-1.58-8.05-4.45-11.87-7-3.78-2.53-7.44-5.23-11.12-7.91-4-2.91-7.29-6.52-10.15-10.53-2-2.82-4.02-5.62-5.95-8.49-2.06-3.06-4.04-6.15-5.25-9.69-.71-2.07-1.55-4.09-2.46-6.08-1.5-3.31-2.04-6.82-2.43-10.37-.04-.4-.03-.81-.09-1.2-.5-3.06-1.01-6.13-1.51-9.19-.08-.51-.14-1.04-.09-1.55.25-2.51.14-5.05.84-7.53.31-1.09.23-2.28.38-3.42.2-1.53.37-3.08.72-4.59.67-2.92,1.48-5.8,2.17-8.71.38-1.59.99-3.04,1.83-4.45,1.29-2.18,2.42-4.45,3.65-6.66.45-.8.88-1.65,1.5-2.31,4.68-4.95,9.57-9.66,15.56-13.06,2.45-1.39,4.78-3,7.22-4.42,1.39-.81,2.83-1.57,4.32-2.15,4.51-1.74,9.01-3.51,13.6-5.02,5.69-1.88,11.56-3.07,17.44-4.25,5.53-1.11,11.07-2.14,16.54-3.56,5.17-1.35,10.51-1.97,15.91-1.97,6.62,0,13.25-.18,19.87-.27.52,0,1.04-.02,1.56.03,1.38.13,2.35.93,2.63,2.12.26,1.09-.23,2.21-1.33,2.96-.43.29-.9.51-1.37.73-3.66,1.69-7.39,3.24-10.96,5.1-3.62,1.89-7.08,4.08-10.6,6.16-.99.59-1.88,1.38-2.93,1.83-3.49,1.48-6.47,3.74-9.5,5.93-3.92,2.84-7.93,5.54-11.78,8.47-4.53,3.45-9.06,6.93-12.83,11.28-.41.48-.83.97-1.32,1.37-2.54,2.14-4.32,4.9-6.27,7.53-1,1.34-1.95,2.73-3.08,3.95-3.34,3.62-5.68,7.86-7.22,12.45-1.81,5.4-3.18,10.96-3.68,16.66-.29,3.27-.3,6.56-.46,9.83-.24,4.62.68,9.06,2.12,13.4,1.56,4.7,3.24,9.35,4.91,14.01.27.75.65,1.48,1.09,2.15,2.49,3.87,4.95,7.77,7.55,11.57,2.49,3.62,5.41,6.88,8.55,9.95.73.71,1.4,1.49,2.24,2.38Z"/>
    <path class="cls-5" d="M985.6,339.04c-1.59-.26-3.18-.57-4.78-.75-2.3-.26-4.31-1.15-6.04-2.65-1.78-1.54-3.81-2.89-5.23-4.71-3.39-4.37-4.19-9.51-3.83-14.95.47-7.04,6.86-13.49,13.26-14.9,6.77-1.49,14.06.87,18.08,7.08,1.33,2.05,1.93,4.31,1.47,6.75-.39,2.06-.87,4.1-1.33,6.15-.18.78.08,1.2.91,1.23.42.01.87-.06,1.27-.21,1.94-.75,3.46-2.02,4.07-4.05.54-1.78.95-3.61,1.2-5.44.13-.94-.11-1.97-.37-2.91-1.21-4.39-3.67-7.8-7.86-9.82-1.72-.83-3.39-1.8-5.16-2.53-6.4-2.64-12.99-2.52-19.55-.89-10.59,2.64-21.09,5.63-31.32,9.5-8.47,3.2-17.09,6.03-25.52,9.33-7.45,2.91-14.74,6.24-22.1,9.39-.46.2-.9.41-1.37.59-10.32,3.94-20.63,7.88-30.95,11.81-.97.37-2.05,1.03-2.96.14-.89-.88-.47-2.1-.27-3.19.07-.35.2-.78.46-1,1.58-1.38,3.07-2.91,4.83-4.01,2.99-1.87,6.19-3.41,9.24-5.2,1.55-.91,2.91-2.11,4.43-3.08,3.45-2.21,6.93-4.35,10.4-6.52,3.16-1.97,6.34-3.9,9.48-5.9,4.03-2.57,7.98-5.26,12.05-7.76,2.32-1.42,4.8-2.58,7.24-3.81,6.65-3.36,13.22-6.86,19.98-9.98,7.67-3.54,15.63-6.34,23.87-8.3,3.5-.83,6.97-1.84,10.51-2.38,3.42-.52,6.91-.54,10.38-.76.49-.03,1,.09,1.49.04,7.38-.74,14.4.66,21.28,3.26,5.31,2,9.65,5.29,13.29,9.55,1.97,2.31,4.04,4.59,5.62,7.15,1.41,2.29,2.31,4.92,3.28,7.46,1.35,3.51,2.03,7.19,1.85,10.93-.15,3.26-.26,6.61-2.31,9.44-.11.15-.2.32-.27.49-1.46,3.56-3.92,6.28-7.1,8.39-.51.34-.97.78-1.39,1.23-1.23,1.3-2.65,2.18-4.43,2.57-1.14.25-2.25.72-3.31,1.21-5.58,2.55-11.4,3.29-17.45,2.5-1.66-.22-3.31-.52-4.96-.79l-.05.31Z"/>
    <path class="cls-6" d="M256.8,332.77c5.53-2.93,10.01-7.07,13.86-11.93,1.12-1.42,2.13-2.94,3.17-4.43.26-.37.44-.81.6-1.23.46-1.19.93-2.39,1.35-3.59,1.41-4.07,2.59-8.19,2.86-12.53.21-3.27-.15-6.48-.76-9.68-.31-1.63-.64-3.26-1.19-4.83-.18-.51-.37-1.01-.6-1.5-.91-1.95-1.81-3.9-2.78-5.82-.41-.81-.94-1.58-1.51-2.3-1.65-2.12-3.5-4.07-5.36-6-1.06-1.1-2.01-2.32-3.25-3.24-.49-.37-1-.72-1.48-1.09-.59-.45-1.16-.92-1.75-1.37-1.36-1.03-2.72-2.08-4.11-3.06-.93-.65-2.01-1.02-3.09-1.34-1.01-.3-2.03-.23-3.01.14-1,.38-1.47,1.13-1.47,2.2,0,.9.3,1.71.64,2.51.39.94.86,1.85,1.31,2.77.48.99.99,1.96,1.48,2.94.6,1.19,1.21,2.37,1.78,3.57.63,1.32,1.26,2.63,1.82,3.98.7,1.69.95,3.5,1.19,5.3.25,1.92.36,3.87.49,5.8.15,2.16-.16,4.29-.4,6.43-.07.63-.3,1.24-.49,1.85-.47,1.51-.89,3.05-1.48,4.52-.76,1.9-1.67,3.73-2.52,5.59-1.42,3.12-3.95,5.3-6.47,7.47-.62.53-1.34.94-2.01,1.41-2.78,1.93-5.69,3.64-8.7,5.17-1.46.74-2.97,1.37-4.47,2.02-1.95.84-3.9,1.68-5.87,2.47-2.52,1-5.12,1.77-7.75,2.44-3.12.79-6.22,1.68-9.36,2.41-1.49.34-3.03.42-4.56.6-1.01.11-2.03.17-3,.56-.5.2-.85.47-.95.99-.11.54.11.97.55,1.26.64.42,1.29.83,1.96,1.2.83.46,1.66.91,2.53,1.29,3.27,1.44,6.63,2.57,10.21,2.95.76.08,1.53.18,2.27.36,3.62.86,7.29.98,10.98.9.33,0,.67-.04,1-.03,4.67.14,9.22-.68,13.74-1.67,2.02-.44,4.02-1.01,5.99-1.62,1.34-.42,2.6-1.08,3.93-1.53,1.67-.56,3.13-1.51,4.66-2.32Z"/>
    <path class="cls-3" d="M541.55,401.44c.83-1.64,1.41-2.73,1.93-3.85.78-1.69,1.83-3.21,2.88-4.73.95-1.38,1.87-2.78,2.72-4.22,2.02-3.44,4.65-6.43,7.69-9.1.75-.66,1.64-1.23,2.57-1.69,3.51-1.74,7.17-3.16,11.27-3.72,5.19-.71,10.41-.54,15.72.8,1.78.45,3.58.8,5.37,1.15,2.03.39,4.05.76,6,1.56.09.04.19.07.29.1,4.48,1.1,8.81,2.82,13.25,4.1.51.15,1.04.27,1.56.37,2.22.4,4.45.8,6.67,1.18.52.09,1.05.16,1.57.18,3.08.12,6.16.22,9.24.32,1.52.05,2.98-.13,4.36-.6,3.58-1.22,7.32-2.11,10.76-3.61,2.22-.97,4.2-2.22,6.02-3.72,2.4-1.98,4.6-4.15,6.83-6.29.88-.84,1.57-1.84,2.35-2.76,1.64-1.94,3.3-3.86,4.91-5.81.62-.75,1.24-1.51,1.7-2.36.9-1.66,1.95-3.21,3.13-4.68.65-.8,1.25-1.64,1.87-2.46.2-.26.4-.51.63-.74.56-.59,1.23-.73,1.89-.43.71.31,1.08.95.95,1.8-.17,1.17-.42,2.32-.59,3.49-.14.91-.2,1.83-.33,2.74-.57,4.21-1.17,8.4-2.5,12.41-1.23,3.72-2.69,7.33-4.36,10.87-.45.96-.86,1.93-1.29,2.89-1.23,2.74-2.85,5.25-4.71,7.63-2.24,2.85-4.68,5.55-7.38,8.03-3.32,3.05-7.29,5.32-11.53,7.21-3.58,1.6-7.46,2.39-11.66,2.07-1.77-.14-3.54-.42-5.31-.63-1.02-.12-2.03-.22-3.05-.32-1.53-.16-2.98-.68-4.43-1.24-2.03-.8-4.06-1.63-6.11-2.37-3.25-1.18-6.54-2.24-9.9-3.01-1.07-.25-2.12-.61-3.19-.87-1.36-.33-2.73-.63-4.09-.91-1.66-.33-3.34-.59-5-.94-1.25-.26-2.48-.4-3.73-.38-1.99.02-3.99-.02-5.97.03-1.2.03-2.4.14-3.56.33-3.47.58-6.96,1.11-10.35,1.89-3.58.82-7.08,1.85-10.25,3.53-1.32.7-2.78,1.2-4.13,1.86-.6.29-1.09.73-1.61,1.13-.29.22-.49.54-.81.7-1.77.88-3.06,2.31-4.72,3.32-.38.23-.68.57-.98.9-.5.54-.95,1.13-1.45,1.67-.86.94-1.73,1.86-2.6,2.79-.04.04-.07.09-.11.14-.69.76-1.4.96-2.18.61-.78-.34-1.24-1.03-1.13-2.02.12-1.18.33-2.35.63-3.49.62-2.4,1.5-4.71,2.53-6.95.67-1.47,1.32-2.94,1.74-3.86Z"/>
    <path class="cls-5" d="M408.46,137.63c-.78.33-1.55.68-2.33,1-.82.33-1.66.73-2.48.91-1.12.26-2.17.64-3.23,1.12-4.65,2.12-9.4,3.33-14.14,4.41-2.43.55-4.68.6-6.81.43-4.62-.36-8.55-1.45-11.76-3.26-1.93-1.09-3.78-2.24-5.04-3.78-1.5-1.82-2.63-3.82-3.3-6.02-.14-.47-.22-.97-.22-1.48,0-1.44-.13-2.86.14-4.35.31-1.72.93-3.5,1.55-5.27.41-1.16,1.07-2.35,1.58-3.52.73-1.7,1.97-3.35,3.41-4.98.78-.89,1.57-1.77,2.3-2.66,1.84-2.26,4.34-4.27,6.88-6.25.84-.66,1.9-1.2,2.89-1.76,1.75-1,3.48-2.04,5.28-2.96,3.59-1.84,7.28-3.47,11.13-4.69,4.17-1.32,8.3-2.24,12.42-2.93,1.97-.33,3.79-.34,5.63-.37,3.99-.05,7.21.82,10.49,1.63,1.65.4,2.68,1.28,3.69,2.17,1.44,1.27,2.84,2.56,4.27,3.83,1.25,1.11,1.82,2.55,2.26,4.03.55,1.82.99,3.7,1.3,5.61.26,1.58-.04,3.32-.74,5.11-.61,1.57-1.24,3.15-2.02,4.74-1.61,3.28-4.21,6.44-7.53,9.47-1.34,1.23-2.88,2.35-4.34,3.51-3.34,2.67-7.27,4.51-11.3,6.31Z"/>
    <path class="cls-5" d="M465.56,115.52c1.54-3.19,1.99-6.67,1.77-10.33-.06-1.07-.23-2.15-.37-3.23-.04-.27-.14-.55-.25-.81-.3-.75-.61-1.5-.94-2.25-1.13-2.51-2.4-4.97-4.24-7.27-1.39-1.73-3.05-3.26-4.83-4.7-.91-.74-1.83-1.46-2.84-2.1-.32-.2-.66-.4-1-.58-1.37-.71-2.73-1.43-4.11-2.11-.59-.29-1.22-.52-1.84-.71-1.83-.57-3.69-1-5.55-1.41-1.06-.23-2.11-.56-3.18-.66-.42-.04-.85-.06-1.27-.1-.51-.05-1.03-.11-1.54-.16-1.18-.11-2.37-.23-3.55-.3-.78-.05-1.51.09-2.23.26-.67.16-1.16.51-1.51,1-.35.5-.25,1.03.24,1.57.41.46.94.78,1.48,1.09.64.36,1.3.68,1.96,1.01.7.35,1.42.7,2.12,1.05.86.42,1.72.84,2.56,1.27.93.48,1.86.96,2.77,1.47,1.14.65,2.1,1.49,3.05,2.34,1.01.9,1.96,1.86,2.92,2.81,1.07,1.05,1.88,2.24,2.74,3.4.25.34.41.73.59,1.09.45.92.94,1.83,1.3,2.76.47,1.2.84,2.42,1.25,3.62.69,2.03.36,3.91.05,5.79-.08.46-.27.89-.4,1.33-.57,1.84-1.3,3.6-2.17,5.31-.42.82-.92,1.61-1.41,2.4-.63,1.03-1.26,2.05-1.93,3.06-.86,1.29-1.86,2.47-2.93,3.62-1.26,1.36-2.48,2.76-3.78,4.1-.62.63-1.39,1.15-2.11,1.7-.48.37-.98.71-1.31,1.21-.17.26-.23.5-.05.8.19.31.5.46.86.47.53.02,1.05.03,1.57,0,.64-.02,1.29-.04,1.91-.12,2.36-.27,4.64-.73,6.68-1.63.44-.19.88-.38,1.35-.51,2.28-.67,4.25-1.74,6.15-2.91.17-.11.33-.22.51-.32,2.5-1.36,4.5-3.17,6.41-5.07.85-.85,1.64-1.75,2.38-2.67.51-.62.86-1.35,1.35-1.98.62-.8.94-1.73,1.37-2.61Z"/>
    <text class="cls-2" transform="translate(359.45 292.27)"><tspan x="0" y="0">REGISTER</tspan></text>
  </g>
</svg>